<?xml version="1.0" encoding="UTF-8"?>
<svg xmlns="http://www.w3.org/2000/svg" xmlns:xlink="http://www.w3.org/1999/xlink" viewBox="0 0 394.91 162.62">
  <defs>
    <style>
      .cls-1 {
        fill: url(#linear-gradient-3);
      }

      .cls-1, .cls-2, .cls-3, .cls-4, .cls-5, .cls-6, .cls-7, .cls-8, .cls-9, .cls-10, .cls-11, .cls-12, .cls-13, .cls-14, .cls-15, .cls-16 {
        mix-blend-mode: multiply;
      }

      .cls-17 {
        fill: #acd261;
      }

      .cls-18 {
        fill: #fff;
      }

      .cls-2 {
        fill: url(#linear-gradient-13);
      }

      .cls-19 {
        fill: #d3a590;
      }

      .cls-20 {
        fill: #b7694e;
      }

      .cls-3 {
        fill: url(#linear-gradient-11);
      }

      .cls-21 {
        fill: #f5ab33;
      }

      .cls-4 {
        fill: url(#linear-gradient-10);
      }

      .cls-5 {
        fill: url(#linear-gradient-19);
      }

      .cls-22 {
        fill: #d8d8d8;
      }

      .cls-23 {
        fill: #232121;
      }

      .cls-6 {
        fill: url(#linear-gradient-18);
      }

      .cls-7 {
        fill: url(#linear-gradient-16);
      }

      .cls-8 {
        fill: url(#linear-gradient-17);
      }

      .cls-24 {
        isolation: isolate;
      }

      .cls-25 {
        fill: #a84800;
      }

      .cls-26 {
        fill: #4f1109;
      }

      .cls-27 {
        fill: #a3cce2;
      }

      .cls-28 {
        fill: #a80000;
      }

      .cls-9 {
        fill: url(#linear-gradient-5);
      }

      .cls-29 {
        fill: #eac6b5;
      }

      .cls-30 {
        fill: #0d3b7f;
      }

      .cls-31 {
        fill: #260500;
      }

      .cls-10 {
        fill: url(#linear-gradient-9);
      }

      .cls-32 {
        fill: #bc0606;
      }

      .cls-33 {
        fill: #5b250e;
      }

      .cls-11 {
        fill: url(#linear-gradient-8);
      }

      .cls-34 {
        fill: #001c49;
      }

      .cls-12 {
        fill: url(#linear-gradient-15);
      }

      .cls-35 {
        clip-path: url(#clippath);
      }

      .cls-36 {
        fill: none;
      }

      .cls-37 {
        fill: url(#linear-gradient-7);
      }

      .cls-13 {
        fill: url(#linear-gradient-12);
      }

      .cls-38 {
        fill: #d12a2a;
      }

      .cls-39 {
        fill: #300901;
      }

      .cls-40 {
        fill: url(#linear-gradient-6);
      }

      .cls-40, .cls-41 {
        mix-blend-mode: color-burn;
      }

      .cls-42 {
        fill: #873f26;
      }

      .cls-43 {
        fill: #4f8621;
      }

      .cls-44 {
        fill: #cbc190;
      }

      .cls-45 {
        fill: #eaa74e;
      }

      .cls-46 {
        fill: url(#linear-gradient);
      }

      .cls-14 {
        fill: #d1cfcf;
        opacity: .4;
      }

      .cls-47 {
        fill: #d1956d;
      }

      .cls-48 {
        fill: #cecbc8;
      }

      .cls-49 {
        fill: #7f0000;
      }

      .cls-50 {
        fill: #ce8f74;
      }

      .cls-15 {
        fill: url(#linear-gradient-14);
      }

      .cls-41 {
        fill: url(#linear-gradient-2);
      }

      .cls-51 {
        fill: #1e1e1e;
      }

      .cls-52 {
        fill: url(#linear-gradient-4);
      }

      .cls-53 {
        fill: #cc7425;
      }

      .cls-54 {
        fill: #cc9987;
      }

      .cls-55 {
        fill: #e0b8aa;
      }
    </style>
    <linearGradient id="linear-gradient" x1="-90.33" y1="24.76" x2="-94.36" y2="11.23" gradientTransform="translate(84.95) rotate(-180) scale(1 -1)" gradientUnits="userSpaceOnUse">
      <stop offset=".25" stop-color="#fff"/>
      <stop offset=".64" stop-color="#c6c0b9"/>
    </linearGradient>
    <linearGradient id="linear-gradient-2" x1="187.78" y1="42.21" x2="191.61" y2="38.45" gradientUnits="userSpaceOnUse">
      <stop offset="0" stop-color="#fff"/>
      <stop offset=".04" stop-color="#f5f5f5"/>
      <stop offset=".26" stop-color="#c3c3c3"/>
      <stop offset=".46" stop-color="#9c9c9c"/>
      <stop offset=".65" stop-color="gray"/>
      <stop offset=".82" stop-color="#6f6f6f"/>
      <stop offset=".94" stop-color="#696969"/>
    </linearGradient>
    <linearGradient id="linear-gradient-3" x1="182.67" y1="51" x2="184.06" y2="46.37" gradientTransform="translate(16.12 -34.4) rotate(7.56)" xlink:href="#linear-gradient"/>
    <linearGradient id="linear-gradient-4" x1="-123.61" y1="21.98" x2="-128" y2="7.27" xlink:href="#linear-gradient"/>
    <linearGradient id="linear-gradient-5" x1="224.55" y1="37.16" x2="225.97" y2="32.41" gradientTransform="matrix(1,0,0,1,0,0)" xlink:href="#linear-gradient"/>
    <linearGradient id="linear-gradient-6" x1="221.42" y1="39.15" x2="225.35" y2="35.29" xlink:href="#linear-gradient-2"/>
    <linearGradient id="linear-gradient-7" x1="65.16" y1="28.79" x2="65.01" y2="24.9" gradientUnits="userSpaceOnUse">
      <stop offset="0" stop-color="#fff"/>
      <stop offset=".64" stop-color="#baada6"/>
    </linearGradient>
    <linearGradient id="linear-gradient-8" x1="56.05" y1="41.23" x2="65.68" y2="22.1" gradientUnits="userSpaceOnUse">
      <stop offset="0" stop-color="#fff"/>
      <stop offset=".15" stop-color="#fbfbfa"/>
      <stop offset=".3" stop-color="#f1efee"/>
      <stop offset=".46" stop-color="#e1dbd9"/>
      <stop offset=".62" stop-color="#cac0bc"/>
      <stop offset=".72" stop-color="#b8aba6"/>
    </linearGradient>
    <linearGradient id="linear-gradient-9" x1="250.88" y1="49.98" x2="265.5" y2="39.89" gradientTransform="translate(-221.53 15.6) rotate(-2.44)" gradientUnits="userSpaceOnUse">
      <stop offset="0" stop-color="#fff"/>
      <stop offset=".52" stop-color="#c6c0b9"/>
    </linearGradient>
    <linearGradient id="linear-gradient-10" x1="241.06" y1="71.64" x2="265.52" y2="60.45" gradientTransform="translate(-221.53 15.6) rotate(-2.44)" gradientUnits="userSpaceOnUse">
      <stop offset="0" stop-color="#fff"/>
      <stop offset="1" stop-color="#c6c0b9"/>
    </linearGradient>
    <linearGradient id="linear-gradient-11" x1="422.26" y1="40.87" x2="442.77" y2="26.71" gradientTransform="translate(517.74 -19.47) rotate(175.22) scale(1 -1)" xlink:href="#linear-gradient-9"/>
    <linearGradient id="linear-gradient-12" x1="419.1" y1="58.65" x2="439.78" y2="49.19" gradientTransform="translate(517.74 -19.47) rotate(175.22) scale(1 -1)" xlink:href="#linear-gradient-10"/>
    <linearGradient id="linear-gradient-13" x1="71.77" y1="96.25" x2="76.04" y2="65.64" gradientUnits="userSpaceOnUse">
      <stop offset="0" stop-color="#fff"/>
      <stop offset=".19" stop-color="#dedede"/>
      <stop offset=".48" stop-color="#b4b4b4"/>
      <stop offset=".71" stop-color="#9a9a9a"/>
      <stop offset=".84" stop-color="#919191"/>
    </linearGradient>
    <linearGradient id="linear-gradient-14" x1="29.22" y1="91.47" x2="31.86" y2="72.55" xlink:href="#linear-gradient-13"/>
    <linearGradient id="linear-gradient-15" x1="371.29" y1="71.83" x2="368.61" y2="63.02" gradientTransform="translate(668.08) rotate(-180) scale(1 -1)" gradientUnits="userSpaceOnUse">
      <stop offset="0" stop-color="#fff"/>
      <stop offset=".25" stop-color="#c6c0b9"/>
    </linearGradient>
    <clipPath id="clippath">
      <path class="cls-36" d="m302.24,68.44c-.42.54-2.64,2.26-3.93,2.12-1.28-.13-3.41-1.28-3.83-2.2-.35.38-1.68,1.41-1.68,1.41l5.09,18.56,5.82-18.06-1.48-1.83Z"/>
    </clipPath>
    <linearGradient id="linear-gradient-16" x1="282.57" y1="112.62" x2="286.48" y2="96.12" gradientUnits="userSpaceOnUse">
      <stop offset="0" stop-color="#fff"/>
      <stop offset=".16" stop-color="#f5f5f5"/>
      <stop offset=".42" stop-color="#ddd"/>
      <stop offset=".74" stop-color="#b5b5b5"/>
      <stop offset="1" stop-color="#919191"/>
    </linearGradient>
    <linearGradient id="linear-gradient-17" x1="295.62" y1="100.3" x2="295.71" y2="95.16" gradientTransform="matrix(1,0,0,1,0,0)" xlink:href="#linear-gradient-9"/>
    <linearGradient id="linear-gradient-18" x1="253.77" y1="103.26" x2="275.49" y2="88.68" gradientUnits="userSpaceOnUse">
      <stop offset="0" stop-color="#fff"/>
      <stop offset=".74" stop-color="#c6c0b9"/>
    </linearGradient>
    <linearGradient id="linear-gradient-19" x1="328.29" y1="140.57" x2="328.29" y2="123.58" gradientUnits="userSpaceOnUse">
      <stop offset=".27" stop-color="#fff"/>
      <stop offset=".39" stop-color="#fafafa"/>
      <stop offset=".52" stop-color="#ededed"/>
      <stop offset=".65" stop-color="#d7d7d7"/>
      <stop offset=".79" stop-color="#b8b8b8"/>
      <stop offset=".93" stop-color="#919191"/>
      <stop offset=".99" stop-color="#7d7d7d"/>
    </linearGradient>
  </defs>
  <g class="cls-24">
    <g id="Layer_1" data-name="Layer 1">
      <g>
        <g>
          <g>
            <g>
              <g>
                <path d="m182.55,83.56c.07,1.17-.21-3.95-1.06-4.48-2.44-1.54-2.4,5.01-2.61,4.26,1.47,4.07.19,5.03,1.63,6.13,1.44,1.1,2.33,1.23,2.68.76.34-.48.67-2.02.24-3.37-.44-1.39-.88-3.3-.88-3.3Z"/>
                <path class="cls-55" d="m182.97,81.28c-.11,1.1-.71,1.38-.38,2.59.33,1.21.38,2.64.38,2.64,0,0-.11,1.37-.71,1.37s-1.65.26-2.2-2.46c-.28-1.38-.77-4.36-.77-4.36l3.68.22Z"/>
                <path class="cls-54" d="m179.29,82.49c-.17-1.76-.31-1.95-2.53-1.26-.72.22.99,3.74-1.51,6.24-.73,1.83-.02,3.17,1.7,3.22,1.65.04,2.83.91,2.83,0s-.49-8.2-.49-8.2Z"/>
                <path d="m185.6,37.64c.83,2.47,2.8,5.85,2.38,11.6-.69,9.27-2.12,16.72-2.12,16.72,0,0-.61,12.27-1.98,16.94-1.1.96-5.43-.07-5.43-.07,0,0,1.28-15,1.47-17.6.14-2.01-.75-14.24-.75-15.34s-.45-13.39-.45-13.39l6.88,1.15Z"/>
                <path d="m174.47,35.46c-1.82,3.2-4.23,8.82-3.94,13.79.29,4.96,1.61,11.26,1.83,17.64.17,4.94.8,16.93,1.32,18.59.37,1.17,6.05-.55,6.05-.55.41-3.02-.82-13.31-.45-19.54.17-2.79.45-14.92.61-15.59.23-1,.08-14.4.08-14.4l-5.5.07Z"/>
                <path class="cls-23" d="m179.43,50.22c-.16.67,0,12.36-.16,15.16-.37,6.22.87,16.51.45,19.54,0,0-.32.31-1.54.44-.47-3.35-.74-11.05-.55-18.48.22-8.69.12-9.28.44-15.95l1.35-2.21s.23.51,0,1.5Z"/>
                <path d="m179.7,89.78c1.46,2.48-1.33,2.75-2.15,2.06-2.63-2.21-2.82-.9-3.76-2.45-1.16-1.92-.34-3.74,1.14-3.3,1.96.58,2.45,1.29,3.25,2.48,1.06,1.58,1.53,1.21,1.53,1.21Z"/>
                <path class="cls-23" d="m183.87,82.9c1.37-4.67,1.98-16.94,1.98-16.94,0,0,1.66-7.86,2.35-17.12.38-5.12-1.37-7.96-2.29-10.35l-2.47-.98c1.61,3.23,2.2,13.79,1.76,17.31-.44,3.52-1.47,10.41-1.47,11.73,0,1.12-1.59,13.18-2.07,16.75.93.04,1.8-.04,2.21-.4Z"/>
              </g>
              <path class="cls-39" d="m184.6,11.11c.08,3.5,2.97,9.56.46,9.29-.46-.05-10.83,2.37-11.33-2.75-.22-2.22,1.19-5.66,1.76-6.38.57-.72,9.11-.16,9.11-.16Z"/>
              <path class="cls-55" d="m187.59,21.17c.68-1.12-.62-1.21-1.57-1.38-.79-.34-2.48-.69-3.39-2.43-.22-1.27-.5-2.97-.5-3.29l-1.63-.11h0s-.01,0-.01,0h-.01s0,0,0,0l-1.7.11c0,.51-.44,4.43-.44,4.43l1.12,9.71c.22,0,7.77-6.44,8.14-7.04Z"/>
              <path class="cls-55" d="m180.04,21.44l-2.42-3.55s.5-4.44.5-5.03l1.93-.12h0s.01,0,.01,0h.01s0,0,0,0l1.86.12c0,.58.85,5.35.85,5.35l-2.51,2.69h0l-.24.54Z"/>
              <path class="cls-54" d="m169.92,21.78c.79-1.13,1.89-2.43,2.89-2.6.94-.4,4.61-.3,4.9-3.85,0,0,2.96.49,2.86,1.13-.1.64-.19,11.29-.88,11.44-.69.15-11.06-4.25-9.77-6.12Z"/>
              <g class="cls-16">
                <path class="cls-46" d="m179.57,13.08h.04l2.35.13c0,.19.18,1.75.28,2.52-.58.88-2.71,4.32-7.52,6.74-1.39.71-1.43-2.61-2.03-3.25,1.42-.25,3.92-1.05,4.5-2.19.68-1.33.49-3.49.49-3.65l1.91-.3Z"/>
              </g>
              <path class="cls-55" d="m175.4,10.68c.43,3.28,3.2,6.15,5.47,6.15,1.77,0,3.24-1.87,3.92-6.06.55-3.45-.31-6.87-4.63-6.87-4.05,0-5.2,3.35-4.76,6.79Z"/>
              <g>
                <path class="cls-34" d="m174.48,18.59c.44,2.05,4.84,6.75,5.28,7.48.44.73.73,11.88.44,12.91-.29,1.03-7.48.15-7.48.15l.44-1.32s0,.15-.73-.88c-.73-1.03.15-3.08.29-6.16.15-3.08-2.2-8.21-2.35-9.53-.14-1.32,4.11-2.64,4.11-2.64Z"/>
                <path class="cls-30" d="m170.38,21.23c-1.61,1.47-1.69,8.58-3.15,12.17-1.21,2.97-2.61,4.56-1.58,5.44,1.03.88,4,2.11,5.62-.23,1.61-2.35.37-7.99,1.32-10.34.51-1.25-2.2-7.04-2.2-7.04Z"/>
                <path class="cls-34" d="m189.01,21.39c1.61,1.47,1.93,9.08,2.82,12.16.88,3.08,1.87,3.89.84,4.76-1.03.88-3.74,1.54-5.35-.81-1.61-2.34.51-5.72-.5-9.08-.39-1.29,2.2-7.04,2.2-7.04Z"/>
                <path class="cls-30" d="m174.06,18.92c.33,1.26,5.7,7.15,5.7,7.15,0,0,.07.22.46-.33-3.11-3.19-5.06-7.37-5.06-7.37h-.65s-.45.55-.45.55Z"/>
                <g>
                  <path class="cls-30" d="m184.9,18.75c-.44,2.05-4.84,6.75-5.28,7.48-.44.73-.73,11.88-.44,12.91.29,1.03,7.48.15,7.48.15l-.44-1.32s0,.14.73-.88c.73-1.03-.15-3.08-.29-6.16-.15-3.08,2.2-8.21,2.35-9.53.15-1.32-4.11-2.64-4.11-2.64Z"/>
                  <path class="cls-34" d="m179.78,25.19c2.12-2.15,4.48-6.38,4.48-6.71.66.19.96.38.96.38,0,0-1.1,2.75-5,6.88-.39.41-.44-.55-.44-.55Z"/>
                </g>
              </g>
              <path class="cls-54" d="m190.27,38.08c-.18.88,3.69.89,3.73.46.12-1.38-1.03-3.13-2.41-2.72-1.07.31-.59.21-.81.2-.22,0-1.32,1.81-1.32,1.81l.81.25Z"/>
              <path class="cls-54" d="m168.6,38.05c.36.83-.09.86-.53,1.58-.43.72-.08.8-.35.94-.27.14-1.68.58-2.2-.01-.56-.64-1.25-1.59-1.01-1.94.41-.58,1.44-2.35,2.5-2.69,1.06-.34,1.01-.07,1.22-.13.21-.05,1.21,1.65,1.21,1.65l-.84.6Z"/>
              <path class="cls-44" d="m167.8,40.92c-.64-.07-1.05-.6-1.57-1.3h0c-.41-.62-.67-1.19-.69-1.68h0c0-.16.03-.4.24-.55h0c.11-.08.24-.11.35-.11h0c.64.07,1.05.6,1.57,1.3h0l-.33.23-.33.22c-.2-.3-.42-.56-.61-.73h0c.09.24.25.56.46.86h0c.2.3.42.55.61.72h0c-.09-.24-.25-.55-.46-.86h0l.33-.22.33-.23c.41.62.67,1.19.68,1.67h0c0,.17-.04.38-.26.56h0c-.1.07-.22.09-.32.09h-.01Z"/>
              <path class="cls-44" d="m190.91,40.81c-.26-.18-.29-.44-.3-.62h0c0-.46.22-1.02.56-1.63h0c.48-.76.84-1.34,1.51-1.43h0c.1,0,.21.03.29.08h0c.28.18.3.44.31.63h0c0,.46-.22,1.02-.55,1.64h0c-.49.75-.84,1.33-1.52,1.43h0c-.09,0-.19-.02-.29-.08h0Zm.96-1.86c-.18.32-.32.64-.39.89h0c.17-.18.37-.46.55-.77h0c.19-.32.32-.65.39-.9h0c-.17.19-.37.46-.55.78h0l-.35-.19.35.2h0Z"/>
              <path class="cls-45" d="m193.05,40.42l-1.78-1.8c-.05-.05-.1-.09-.17-.13l-.03-.02h-.01c-.12-.06-.25-.1-.4-.1h-22.48c-.29,0-.53.13-.66.31l-1.67,1.76,1.33.17,1.28.34c0,.33.34.59.77.59h20.58c.43,0,.77-.27.77-.6l1.42.14,1.04-.66Z"/>
              <g>
                <path class="cls-38" d="m175.53,33.69h-5.07l.87,7.64s0,0,0,.01c0,.13.76.23,1.71.23s1.64-.1,1.7-.22h.01l.79-7.67Z"/>
                <path class="cls-28" d="m173.03,41.58c-.95,0-1.71-.11-1.71-.23,0,0-.86-7.66-.86-7.66h2.53l.03,7.89Z"/>
                <path class="cls-18" d="m175.53,33.72c0,.19-1.14.35-2.54.35s-2.54-.16-2.54-.35,1.14-.34,2.54-.34,2.54.15,2.54.34Z"/>
              </g>
              <path class="cls-55" d="m168.06,36.75c-.07.85-.7.79-1.19,1.25-.9.84-1.24.85-1.24.85,0,0-.78.04-.24-.6.66-.79.57-.6.77-1.37.21-.77.41-.95,1.08-.88.69.07.81.76.81.76Z"/>
              <path class="cls-41" d="m188.21,38.34c-.14.33-1.1,3.06-1.1,3.06l3.67.44,2.29-1.38s-1.93-1.94-1.97-1.97c-.29-.25-2.89-.16-2.89-.16Z"/>
              <g>
                <path class="cls-38" d="m181.96,36.01c0,.24-.19.44-.42.44s-.42-.19-.42-.44.19-.44.42-.44.42.2.42.44Z"/>
                <path class="cls-21" d="m181.21,37.4h3.82c.49,0,.88.39.88.88v.59c0,.49-.39.88-.88.88h-3.81c-.48,0-.88-.39-.88-.88v-.59c0-.48.39-.88.88-.88Z"/>
                <path class="cls-43" d="m181.06,36.67c-.44.22-1.1.29-.88.59.22.29.51.15,1.03.15s.66.73.66.73c0,0,.29,0,.59-.29.29-.29.95-.29.95-.29,0,0,.44.59.66.44.22-.15.44-.29.81-.22.37.07,1.1.96,1.32.22.22-.74-.8-.95-.8-.95l-4.33-.37Z"/>
                <path class="cls-39" d="m185.9,36.52c0,.28-.23.51-.51.51h-4.25c-.28,0-.51-.23-.51-.51h0c0-.28.23-.51.51-.51h4.25c.28,0,.51.23.51.51h0Z"/>
                <path class="cls-17" d="m182.02,36.19c-.7-.77-.66-1.21-.22-1.1.44.11.84,1.1.73.33-.11-.77.48-1.39.51-1.25.04.15.07.7.07.7,0,0-.33.37-.04.29.29-.07.18-.84.48-.29.29.55.07.44.29.55.22.11,1.06.22.62-.62-.44-.84,0-1.76.15-.55.11.92,1.06-1.17,1.14-.48.07.7-.07.95-.29,1.1-.22.15-.18-.07-.22.15-.04.22.44-.15.26.22-.18.37-.33.59-.33.59,0,0,.7.11.22.18-.48.07-3.37.18-3.37.18Z"/>
                <path class="cls-38" d="m184.65,36.08c0,.21-.16.38-.36.38s-.37-.17-.37-.38.16-.38.37-.38.36.17.36.38Z"/>
                <path class="cls-28" d="m183.2,36.1c-.23.24-.61.25-.84.03-.23-.22-.23-.6,0-.84l.84.81Z"/>
              </g>
              <path class="cls-18" d="m188.48,38.93c0,1.34-2.39,2.43-5.35,2.43s-5.35-1.09-5.35-2.43h10.7Z"/>
              <path class="cls-42" d="m185.39,6.16s-.77-1.54-2.25-2.31c-1.57-.81-2.78-.16-2.74.12.03.21,1.2,1.86,1.2,1.86.8.97,2.14.93,2.53,2.42,1.07,4.13-.48,11.78-.77,12.59.69-.88,1.48-1.82,1.48-1.82,0,0-.44,2.2-2.09,3.47.69.29,2.19-.35,2.42-.94-.11.37-.71,1.07-.71,1.07,0,0,3.23-.11,3.63-2.61.19-1.21-1.49-11.95-2.69-13.86Z"/>
              <path class="cls-54" d="m179.69,5.17c-1.32,2.57-.95,9.6,1.17,11.66-2.42-.15-3.89-1.54-4.18-2.27-.29-.73-1.17-6.53-.29-7.55.88-1.03,3.3-1.83,3.3-1.83Z"/>
              <path class="cls-33" d="m177.22,19.4s.52.88,1.57,1.76c-.48-.88-2.48-9.11-1.15-13.05,1.27-1.76,3.75-1.85,4.54-1.98,0,0-.62-2.46-.81-2.57-1.87-1.14-4.39-.19-5.72.96-3.15,2.71-4.86,15.08-4.69,15.76.61,2.49,5.3,2.49,5.3,2.49,0,0-.26-.59-.43-.95.35.58,2.52,1.17,3.56.88-1.13-.73-2.17-3.3-2.17-3.3Z"/>
              <path class="cls-54" d="m191.82,38.8c-.26-.36-.5-.62-.31-.66.19-.03.93.35.93.35,0,0-.85-.47-.66-.56.18-.1.96-.06,1.2.14.23.2.86-.11.86-.11,0,0,.01,1.11-.18,1.14-.2.03-1.83-.31-1.83-.31Z"/>
              <path class="cls-1" d="m191.59,35.82c-.39.02-.73.02-.73.02l-2.12,2.9s2.82.45,3.48.53c.65.09,1.53-.39,1.48-1.13-.05-.75-.17-1.24-.63-1.42-.46-.17-1.49-.9-1.49-.9Z"/>
              <path class="cls-55" d="m192.88,35.97c.41.32,1.63,1.85,1.5,2.18-.12.34-.66,1.53-.92,1.54-.26,0-1.24.4-1.51.07-.27-.32-1.03-.86-.56-1.16.28-.18.4.19.74.24.33.06.59.39.84.12.26-.27.6-.88.52-1.2-.07-.33-.49-.91-.49-.91l-.12-.87Z"/>
              <path class="cls-44" d="m191.34,40.91c-.16-.16-.16-.41,0-.57h0c.44-.4,1.2-2.02,1.17-2.58h0c0-.05,0-.09,0-.11h0c-.05-.21.08-.43.29-.48h0c.21-.05.43.08.48.29h0c.03.1.03.2.03.3h0c-.03.99-.78,2.47-1.4,3.14h0c-.08.08-.18.12-.29.12h0c-.1,0-.2-.04-.28-.12h0Z"/>
              <path class="cls-55" d="m191.59,35.82c.33-.19.52-.14.72-.14.2,0,.58.22.72.55.14.33.2.63.2.8,0,.22.04,1.03-.28,1.05-.29.01-.42-.36-.55-.76-.2-.62-.47-.38-.74-.63-.27-.26-.07-.86-.07-.86Z"/>
              <path class="cls-53" d="m192.1,42.09c-.22.33-.39.47-.87.47h-23.34c-.48,0-.7-.24-.87-.47l-1.2-1.57c0-.26.39-.16.87-.16h25.49c.48,0,.88-.1.88.16l-.95,1.57Z"/>
            </g>
            <g>
              <path d="m221.6,17.42c.75-.22,1.69.22,2.02,2.93.39,3.15.43,5.75,1.11,11.74.15,1.29,2.24,2.01,1.07,2.09-.95,2.66-4.34,4.6-4.34,4.6,0,0-1.57-5.44-1.48-6.1.08-.67.4-6.92.4-7.75s1.22-7.51,1.22-7.51Z"/>
              <path class="cls-54" d="m224.04,35.04c-.06.92,3.87.41,3.86-.03-.06-1.42-1.47-3.05-2.82-2.44-1.04.46-1.71.17-1.94.19-.22.02-1.48,2.14-1.48,2.14l2.38.15Z"/>
              <path d="m225.31,32.42c-.9.17-1.72,1.5-2.17,2.93l-.45,1.43-2.63-2.71,3.83-2.82,1.41,1.16Z"/>
              <path class="cls-54" d="m225.57,35.66c-.27-.37-.52-.64-.32-.67.2-.03.95.36.95.36,0,0-.87-.48-.68-.58.19-.1.99-.06,1.23.15.24.2.88-.11.88-.11,0,0,.01,1.13-.19,1.17-.2.03-1.88-.32-1.88-.32Z"/>
              <path d="m204.42,16.9c-.75-.23-1.68.22-2.02,2.93-.39,3.15-.43,5.74-1.11,11.74-.15,1.29-2.24,2.01-1.07,2.09.95,2.66,4.34,4.6,4.34,4.6,0,0,1.38-5.66,1.3-6.33-.08-.67-.22-6.69-.22-7.52s-1.22-7.5-1.22-7.5Z"/>
              <path class="cls-54" d="m201.94,34.96c.21.9-.25.85-.82,1.5-.57.64-.22.79-.52.88-.3.09-1.8.28-2.22-.41-.45-.75-.98-1.83-.66-2.14.52-.52,1.88-2.12,3.01-2.26,1.13-.15,2.16-.74,2.39-.76.23-.01,1.16,2.66,1.16,2.66l-2.33.53Z"/>
              <path class="cls-20" d="m208.43,5.45c-.26,1.81-2.63,10.04-4.28,9.58.54.81,2.09.51,1.92.06-.6,1.05-2.14.34-2.14.34.68.73,1.97,2.2,3.51.02,0,.84-1.05,1.74-1.5,1.89,1.05.15,5.41-1.35,6.16-4.51.75-3.16-3.67-7.39-3.67-7.39Z"/>
              <g>
                <path class="cls-54" d="m207.58,63.2c-1.2,3.31-1.2,5.59,1.37,15.07.13.91.33,2.61.39,3.21.05.46.02.92-.06,1.48-.16,1.06-.08,1.24-.17,1.84-.17,1.2-.01,2.98.32,3.28,1.24,1.1,3.55.47,3.55-.73s-.77-4.52-.82-5.56c-.06-1.15-.13-3.83-.03-5.45.28-4.91,1.91-10.79,1.4-13.02-.51-2.23-.12-4.05-.12-4.05l-6.68-.51.85,4.45Z"/>
                <path d="m208.99,85.94c.09,1.33.48,1.8,1.97,1.76,1.3-.04,1.84-.83,1.75-2.08.47,1.66.59,2.2.31,2.77-.28.57-.98,1.58-1.71,1.64-.58.05-2.04-.73-2.32-1.98-.28-1.26,0-2.1,0-2.1Z"/>
              </g>
              <path class="cls-55" d="m220.66,52.7c-.34,7.02-.91,13.07-.91,14.21s.57,2.23-.34,6.56c-.92,4.34-2.94,8.8-3.08,10.85-.23,3.23,1.48,7.08,1.14,8.11-.52,1.56-4.45.77-4.68-.6-.23-1.37.77-1.54-.14-5.36-.18-.75.49-1.42.77-2.66.4-1.77.46-6.44.06-9.53-.39-2.94.69-5.48.91-7.54.23-2.05-.23-5.25-.23-8.68s6.51-5.37,6.51-5.37Z"/>
              <path d="m213.06,84.89c-.97,1.4-.34,2.57-.17,3.43.17.85-.46,2.5-.46,3.65,0,1.04,1.48,2.43,2.91,2.45.9.02,2.24-1.14,2.31-2,.09-1.05-.17-1.34-.17-1.34,0,0-1.29.99-2.33.92-.77-.06-1.67-.36-1.93-.74-.53-.81.21-2.13-.17-3.17-.66-1.77,0-3.2,0-3.2Z"/>
              <path class="cls-34" d="m206.38,35.91c-1.37,3.77-2.76,9.99-1.48,15.41,2.14,9.08.63,11.99.63,11.99,0,0,3.9,1.78,8.64,1.21,1.14-.13,1.8-1.07,4.23-.84,1.71-11.3,2.54-17.41.83-23.23l-1.71-5.82-11.13,1.28Z"/>
              <path class="cls-30" d="m219.84,33.68c1.61,4.63,2.78,10.29,2.3,16.62-.48,6.33-1.12,14.39-1.12,14.39,0,0-2.22-1.03-3.25-1.03s2.4-13.01.95-21.35c-.67-3.84-2.06-7.85-2.06-7.85l3.19-.78Z"/>
              <path class="cls-55" d="m213.06,22.04l-3.33-6.28s1.76-6.14,1.76-6.78l2.1-.14h0s.02,0,.02,0h0s0,0,0,0l2.03.14c0,.63.92,5.81.92,5.81l-2.28,5.1-1.21,2.14Z"/>
              <g class="cls-16">
                <path class="cls-52" d="m213.06,9.23h.04l2.55.14c0,.21.2,1.9.3,2.74-.64.95-2.94,4.69-8.16,7.32-1.52.77-1.29-2.46-1.94-3.16,1.54-.28,3.77-1.41,4.4-2.65.73-1.44.06-3.83.06-4l2.76-.39Z"/>
              </g>
              <path class="cls-55" d="m208.45,6.81c-.09,3.59.94,6.44,2.63,6.7,1.9.29,5.86-1.58,7.43-5.05,1.56-3.46.8-7.43-3.83-8.14-4.35-.67-6.14,2.73-6.23,6.49Z"/>
              <path class="cls-22" d="m209.5,15.28c.55,1.09,1.81.13,2.52.86.33,2.58.65,2.84,1.48,2.89.4,2.59,1.18,22.27,1.18,22.27l-8.91-.06s-.17-6.38.65-8.02c.82-1.64-.24-7.54-1.25-8.8,0,0,2.83-5.56-.15-7.05,2.33-.55,4.47-2.1,4.47-2.1Z"/>
              <path class="cls-18" d="m217.7,15.06c-.75,1.5-1.99.29-2.68.93-.56.52-.69,2.77-1.52,3.04-.39,2.59.02,22.18.02,22.18l6.24-.71s1.23-4.44.08-6.82c-1.3-2.69-.54-7.89.55-9.24,0,0-1.15-2.98,1.76-7.3-.45-1.19-4.45-2.07-4.45-2.07Z"/>
              <path d="m209.37,14.84c-2.01,1.22-5.06,1.94-5.62,2.39,0,0,.95,7.06,1.18,7.95.22.88,2.14,6.67,1.7,8.34-.45,1.67-2.61,8.41-2.5,9.08.11.67,8.87,1.87,8.87.75s-.23-17.67-.23-17.67c0,0-1.53-5.45-2.03-6.65-.68-1.63-1.38-4.19-1.38-4.19Z"/>
              <polygon class="cls-18" points="209.99 13.81 212.02 16.14 207.92 17.68 208.77 14.92 209.99 13.81"/>
              <path class="cls-51" d="m218.28,15.39c1.52,1.27,3.63,1.81,4.19,2.25,0,0-1.46,6.59-1.68,7.48-.22.89-1.52,5.95-1.08,7.61.45,1.67,2.43,8.15,2.31,8.81-.11.67-7.67,2.46-7.67,1.35s-.34-17.61-.34-17.61c0,0,2.15-7.23,2.82-8.34.67-1.11,1.45-1.55,1.45-1.55Z"/>
              <polygon class="cls-18" points="214.69 15.84 217.06 13.06 218.15 14.84 218.41 18.25 214.69 15.84"/>
              <path class="cls-20" d="m211.04,2.99c-.3-.45-1.11-.53-1.77.49-.41.64-.86,2.07-.9,3.65-.71-1.65-.05-4.28,1.2-5.52,1.54-1.54,4.92-1.99,4.85-1.24-.08.75-3.38,2.63-3.38,2.63Z"/>
              <path class="cls-50" d="m211.04,2.99c1.01-.68,3.57.45,3.91,1.58.34,1.13-.49,2.18.41,2.97.9.79.71,2.31.34,3.65-.75,2.71-.51,4.02,1.3,5.38,1.8,1.35,3.05.67,4.12.67.23,0-1.41-.17-1.75-.62-.34-.45-.9-.88-.36-.51,1.09.75,3.08,1.17,3.95.3-1.28-.15-1.75-.66-2.07-1.88-1.2-4.7-.45-7.44-1.13-10.15-.68-2.71-4.25-4.55-5.79-4.02-1.54.53-2.93,2.63-2.93,2.63Z"/>
              <path d="m200.89,32.3c.9.17,1.88.87,2.33,2.29l.45,1.43,2.63-2.71-3.83-2.82-1.58,1.8Z"/>
              <path class="cls-44" d="m199.27,36.02c-.27-.59-.42-1.14-.42-1.58h0c.01-.23.01-.54.35-.72h0c.09-.05.18-.07.26-.07h0c.72.12,1.02.76,1.46,1.59h0l-.36.17.36-.16c.26.59.41,1.14.42,1.58h0c-.01.24-.02.53-.36.73h0c-.09.04-.18.05-.25.05h0c-.72-.12-1.02-.76-1.46-1.59h0Zm.73-.33c.15.35.35.66.51.87h0c-.05-.26-.16-.62-.32-.98h0c-.15-.35-.35-.66-.52-.87h0c.05.26.16.62.32.98h0Z"/>
              <path class="cls-44" d="m224.64,37.71c-.28-.18-.31-.45-.31-.63h0c0-.47.22-1.04.57-1.67h0c.49-.78.86-1.37,1.54-1.46h0c.1,0,.21.03.3.08h0c.27.18.29.44.3.63h0c0,.47-.22,1.04-.56,1.67h0c-.5.77-.86,1.36-1.54,1.46h-.01c-.08,0-.18-.02-.28-.08h0Zm.54-.95c.18-.19.4-.48.59-.82h0c.2-.35.34-.7.41-.96h0s0,0,0,0h0c-.18.19-.4.48-.59.83h0c-.2.34-.34.7-.41.95h0Z"/>
              <path class="cls-45" d="m226.83,37.32l-1.83-1.85c-.05-.05-.11-.1-.17-.13l-.03-.02h-.02c-.12-.06-.26-.1-.41-.1h-23.05c-.3,0-.54.14-.68.32l-1.71,1.8,1.36.18,1.32.34c0,.34.35.61.79.61h21.1c.44,0,.79-.28.79-.62l1.46.14,1.07-.68Z"/>
              <g>
                <path class="cls-18" d="m208.86,30.42h-5.19l.89,7.83s0,.01,0,.01c0,.13.78.24,1.75.24s1.69-.1,1.74-.22h.02l.81-7.86Z"/>
                <path class="cls-27" d="m206.3,38.5c-.97,0-1.75-.11-1.75-.24,0,0-.88-7.85-.88-7.85h2.6l.03,8.09Z"/>
                <path class="cls-18" d="m208.86,30.45c0,.19-1.16.35-2.6.35s-2.61-.16-2.61-.35,1.17-.35,2.61-.35,2.6.16,2.6.35Z"/>
              </g>
              <path class="cls-55" d="m201.42,33.62c-.26.83-.88.63-1.47.98-1.09.64-1.43.56-1.43.56,0,0-.79-.13-.11-.65.84-.64.7-.47,1.08-1.19.38-.72.63-.85,1.28-.64.68.22.64.94.64.94Z"/>
              <path class="cls-9" d="m225.08,32.56c-.4.08-.74.11-.74.11l-1.77,3.23s2.93.08,3.61.08,1.5-.6,1.35-1.35c-.15-.75-.34-1.24-.83-1.35-.49-.11-1.63-.71-1.63-.71Z"/>
              <path class="cls-40" d="m221.87,35.18c-.15.34-1.13,3.14-1.13,3.14l3.76.45,2.35-1.41s-1.98-1.99-2.02-2.02c-.29-.25-2.96-.16-2.96-.16Z"/>
              <path class="cls-55" d="m226.41,32.55c.46.27,1.9,1.66,1.82,2.01-.08.36-.46,1.65-.73,1.69-.27.04-1.2.57-1.53.28-.32-.29-1.16-.73-.73-1.1.26-.23.44.13.78.15.35.01.65.31.87,0,.22-.31.49-.97.36-1.29-.12-.32-.62-.86-.62-.86l-.23-.87Z"/>
              <path class="cls-44" d="m225.08,37.81c-.16-.16-.16-.41,0-.57h0c.45-.41,1.23-2.06,1.2-2.65h0c0-.06,0-.1,0-.11h0c-.05-.21.07-.43.29-.48h0c.21-.06.43.07.48.29h0c.03.11.04.21.04.31h0c-.03,1.01-.79,2.52-1.43,3.21h0c-.08.08-.18.12-.28.12h0c-.1,0-.21-.04-.28-.12h0Z"/>
              <path class="cls-55" d="m225.08,32.56c.3-.24.51-.21.71-.24.2-.03.62.15.81.46.19.31.29.61.31.79.03.23.17,1.04-.14,1.1-.3.05-.47-.31-.66-.7-.29-.6-.53-.32-.84-.54-.31-.22-.19-.87-.19-.87Z"/>
              <g>
                <path class="cls-43" d="m213.6,36.83c-.34-.15-1.7-1.33-1.47-1.92.23-.59.56-.88,1.02-.73.45.15,1.08.8,1.41-.53.34-1.33.06-.66.74-.81.68-.15,1.84.44,1.84.44,0,0-.38.6.18.6.11,0,1.15-1.33,1.15-1.33,0,0,1.81-.15,1.7.74-.11.89,1.66.08,2,.97.34.89.04,1.14-.53,1.88-.56.74-8.04.7-8.04.7Z"/>
                <path class="cls-28" d="m219.3,33.33c.14.31,0,.68-.3.82-.3.14-.66,0-.79-.32l1.09-.5Z"/>
                <path class="cls-17" d="m213.47,36.36c-.51-.45-1.32-1.59-.43-1.61,1.67-.04.87-1.39,1.52-1.09.65.3.73.83.73.83,0,0,.15.37.65-.15.51-.53.68-.97.74-.29.08.93.72.52.72.74s.25,1.02.47-.19c.22-1.2,2.38-.64,2.38-.64,0,0,.14.77.37.64.56-.3,1.08-.19.72.49-.37.68.87.9-.08,1.2-.94.3-7.79.07-7.79.07Z"/>
                <path class="cls-38" d="m220.44,35.57c0,.34-.27.62-.6.62s-.6-.28-.6-.62.27-.62.6-.62.6.28.6.62Z"/>
                <path class="cls-38" d="m214.71,35.61c0,.25-.19.45-.44.45s-.44-.2-.44-.45.2-.45.44-.45.44.2.44.45Z"/>
                <path class="cls-28" d="m217.06,34.94c0,.34-.27.62-.6.62s-.6-.28-.6-.62h1.2Z"/>
              </g>
              <path class="cls-18" d="m222.26,35.75c0,1.38-2.45,2.49-5.48,2.49s-5.48-1.12-5.48-2.49h10.97Z"/>
              <path class="cls-53" d="m225.85,39.03c-.23.34-.4.48-.9.48h-23.93c-.5,0-.73-.25-.9-.48l-1.23-1.61c0-.27.4-.16.9-.16h26.13c.5,0,.9-.1.9.16l-.98,1.61Z"/>
            </g>
          </g>
          <path class="cls-14" d="m229.88,89.71c0,4.9-18.63,8.88-41.6,8.88s-41.6-3.97-41.6-8.88,18.63-8.88,41.6-8.88,41.6,3.97,41.6,8.88Z"/>
        </g>
        <g>
          <path class="cls-14" d="m138.93,133.11c0,8.18-31.1,14.82-69.47,14.82S0,141.29,0,133.11s31.1-14.82,69.47-14.82,69.47,6.63,69.47,14.82Z"/>
          <g>
            <g>
              <g>
                <path class="cls-27" d="m55.29,47.56c.89,2.23.78,5.23-.11,5.34-.89.11-3.78,1.11-3-1.67.78-2.78,3.12-3.67,3.12-3.67Z"/>
                <g>
                  <g>
                    <path class="cls-19" d="m59.52,80.12c.53,4.23,3.11,16.84,4.17,20.01,1.05,3.17,4.74,20.48,3.45,22.78-1.3,2.3-5.39,4.68-5.39,4.68,0,0,1.01,1.54,5.91-.84,3.21-1.56,3.6-.5,4.05-3.61,0,0-.31-1.9-.44-4.01-.13-2.12.79-10.67-.18-14.63-.6-2.48-1.71-5.56-1.57-8.33.13-2.78.79-13.22.79-13.22l-10.78-2.82Z"/>
                    <path d="m71.53,121.56c.36,1.04,1.1,2.07.63,3.47-.22.65-.55,3.14-.55,3.14l-1.57.08-.2-2.19s-1,.75-2.25,2.29c-.06.07-6.81.71-6.81.71,0,0-.36-1.87,1.95-2.36,3.01-.64,5.87-2.42,6.63-3.21,1.24-1.28,2.17-1.93,2.17-1.93Z"/>
                  </g>
                  <g>
                    <path class="cls-29" d="m68.54,80.78c1.48,6.94,3.54,15.1,4.33,19.15.48,2.42,1.13,5.93,3.35,13.38,1.49,4.99,1.81,7.1,2.33,8.86.53,1.76.79,5.86,1.45,7,1.01,1.74,3.83,1.67,3.83-.26s-2.16-5.02-2.34-7.32c-.17-2.29-.08-14.9-2.02-20.36-.63-1.79-2.17-19.87-2.52-20.76-.35-.88-8.42.3-8.42.3Z"/>
                    <path class="cls-23" d="m79.18,125.76c.35,1.59.29,4.27,2.55,5.39,1.23.62,1.77.04,2.06-.79.44-1.23.35-3.62-1.15-5.38.44,2.2.9,3.19-.61,3.71-1.58.54-2.85-2.93-2.85-2.93Z"/>
                  </g>
                  <g>
                    <path d="m58.82,51.96c-6.84,14.82-.6,21.54,4.05,48.31-4.4-.88,6.74,6.19,17.14-.71,0,0-2.04-39.01-6.42-46.24-8.43.67-14.76-1.36-14.76-1.36Z"/>
                    <path class="cls-23" d="m74.29,52.19c-1.26.1-4.31,2.26-5.52,2.31,8.19,10.32,7.54,38.77,7.31,45.77,3.01-.18,3.91-.71,3.91-.71,0,0,1.19-30.94-5.71-47.37Z"/>
                  </g>
                  <path class="cls-26" d="m69.8,21.03c1.07,1.51,3.91,6.67,2.14,10.23-1.78,3.56-3.03,3.74-3.03,3.74,0,0,1.43-2.14.36-5.34-1.07-3.2-2.85-6.23-2.85-6.23l3.38-2.4Z"/>
                  <g>
                    <path class="cls-29" d="m65.6,42.11l-5.11-13.33s2.46,0,2.34-5.99l3.01-.16h0s.02,0,.02,0h.02s0,0,0,0l2.75.12c-.42,5.71,1.96,6.5,1.96,6.5l-1.91,10.09-3.07,2.76Z"/>
                    <path class="cls-19" d="m62.75,22.79l3.06.6-.45,8.02-4.87-2.02s1.61-.66,1.67-1.17c.19-1.57.6-4.87.6-5.43Z"/>
                    <g class="cls-16">
                      <path class="cls-37" d="m65.78,22.49h0s.02,0,.02,0h.02s0,0,0,0l3.01.17c0,.24-.36,1.42-.24,2.41-.75,1.12-5.36,5.07-6.82,5.07-1.21,0,.34-.97-.43-1.79,1.09.13,1.42-5.41,1.42-5.69l3.02-.17Z"/>
                    </g>
                  </g>
                  <g>
                    <path class="cls-29" d="m59.33,17.49c.57,4.43,3.75,8.17,5.89,8.17,2.39,0,5.89-2.38,6.81-8.05.75-4.66-.42-9.3-6.26-9.3-5.48,0-7.03,4.53-6.43,9.18Z"/>
                    <path class="cls-19" d="m59.33,17.48c-.41-4.66.44-9.26,5.89-9.28v17.4c-.56.03-.06,0-.09,0-2.14,0-5.29-2.27-5.8-8.11Z"/>
                  </g>
                  <path class="cls-31" d="m65.82,11.62c-1.8,1.72-4.74,1.45-5.46,5.58-.52,3.01.2,4.63.05,4.48-1.69-1.74-2.22-5.65-2.22-5.65,0,0-.5-5.01,3.07-7.34,2.01-1.31,4.68-1.01,4.79-.74.11.27-.23,3.67-.23,3.67Z"/>
                  <path class="cls-26" d="m65.82,11.6c1.34,1.51,4.25,2.34,5.04,5.3.76,2.85-.17,4.85.17,4.28,1.6-2.67,1.84-4.27,1.84-4.27,0,0,.71-5.37-2.58-7.9-1.92-1.47-4.43-1.47-4.45-1.09-.01.29-.02,3.68-.02,3.68Z"/>
                  <path class="cls-27" d="m62.48,27.73c-3.75,1.59-6,1.11-7.57,2.78-4.58,4.89-5.18,19.49-5.18,19.49,0,0,9-.76,8.28.87-1.99,4.58,9.87,3.39,9.87,3.39l-1.21-25.45s-1.68.31-2.14.31l-2.06-1.39Z"/>
                  <path class="cls-18" d="m69.79,27.82c3.54,1.32,5.81,1.42,7.72,2.7,1.91,1.27,3.43,8.01,3.43,8.01,0,0-4.47.65-4.78,1.6-.32.95-3.66,9.84-3.29,11.06.99,3.25-.47,4.62-.47,4.62l-7.95,2.61.24-21.59.83-7.59s1.36-.12,3.3-1.03l.98-.4Z"/>
                  <path class="cls-31" d="m60.5,15.54l10.23-.18s.17-4.09-2.58-4.71c-2.76-.62-5.43-.27-6.4.98-1.29,1.64-1.25,3.91-1.25,3.91Z"/>
                  <path class="cls-11" d="m69.27,29.66l-12.98,17.01s-3.61-13.52-3.48-13.7c.64-.84,1.34-2.13,2.29-2.65,1.91-1.05,5.58-1.94,6.45-2.09,1.66-.3,7.72,1.42,7.72,1.42Z"/>
                  <path class="cls-18" d="m62.15,26.46l-2.39,1.95s2.37,3.61,2.75,3.41c.49-.26,2.77-2.86,2.77-2.86l-3.12-2.5Z"/>
                  <path class="cls-27" d="m69.48,26.39l1.16,1.56s-1.62,3.51-2.51,3.51c-.48,0-2.5-2.41-2.5-2.41l3.85-2.66Z"/>
                  <path class="cls-28" d="m59.76,28.41c-2.31,4.47-1.78,6.86-1.6,8.3.31,2.44,6.03,7.51,6.64,7.92.1,1.53.15,13.37.15,13.37l-2.24,3.26-6.58-2.5s1.43-7.03,1.89-7.64c.46-.61-1.63-8.72-1.63-8.72,0,0,.53-6.7-1.18-12.16-.13-.39,4.56-1.84,4.56-1.84Z"/>
                  <path class="cls-38" d="m72.15,28.41c.31,1.22-.53,7.09-.71,8.54-.31,2.44-6.23,7.42-6.84,7.83-.13,1.88-.1,1.88,0,13.58l1.87,2.66,10.66-2.59s-2.64-6.94-3.1-7.55c-.46-.61,2.04-8.7,2.04-8.7,0,0-2.14-9.31,0-12.34.24-.34-3.92-1.42-3.92-1.42Z"/>
                </g>
                <path d="m66.84,47.18c.22.23.27.56.08.73h0c-.18.19-.51.15-.74-.08l-8.23-8.24c-.23-.22-.27-.56-.08-.74h0c.18-.18.51-.14.74.08l8.23,8.24Z"/>
                <g>
                  <path class="cls-29" d="m52.28,46.72c3.52-.42,6.62-1.07,7.26-1.07s.75,2.99.75,2.99c0,0-6.62,3.95-10.25,3.73-.85-.05-.08-5.38,2.24-5.66Z"/>
                  <path class="cls-29" d="m59.54,45.65c.75-.96,1.18-2.24,2.14-2.14.96.11,3.47,1.15,4.06,1.66.37.32.32.59-.85.48-1.17-.11-2.24-.32-2.24-.32,0,0,3.31.75,2.99,1.28-.32.53-3.41.32-3.41.32,0,0,3.2.21,2.78.86-.43.64-2.67.21-2.67.21,0,0,2.38.14,2.24.43-.58,1.17-1.71.96-2.67.96s-1.19.35-1.92-1.44c-.48-1.17-.43-2.29-.43-2.29Z"/>
                  <path class="cls-29" d="m62.32,43.84c.37-.21,1.87-.69,2.46-.59.59.11,1.55-.16,1.33.21-.21.37-.43.64-1.07.64s-1.12.37-1.12.37l-1.6-.64Z"/>
                </g>
                <polygon points="57.96 48 68.09 46.67 68.42 49.67 62.64 50.56 57.96 48"/>
                <path class="cls-29" d="m80.33,44.89c-2.45.89-10.68,3.34-11.35,3.34s-2.5.67-3.39.67-2.17,0-.84.45c1.34.45,2.67.22,2.67.22l-4.67.44-2.34-.33s1.06,1.06,1.95,1.28c.89.22,3.06.61,4.4.61s3.39-1.67,4.28-1.67,10.4-1.22,11.07-1.45c.67-.22-1.78-3.56-1.78-3.56Z"/>
                <path class="cls-27" d="m76.07,29.83c1.3-.92,2.92,4.48,4.59,8.49,1.67,4,2.07,8.35,1.67,10.26-.41,1.92-5.12,2.75-5.12,2.75,0,0-1.17-4.62-2.5-4.62s1.89-1.95,1.89-1.95l-.53-2.61s-3.59-9.81,0-12.34Z"/>
                <path class="cls-27" d="m73.99,46.5c-.7.17,1.67-1,1.67-1,0,0,3.17,2.72,3.5,5.78-1.25.92-2.67.56-2.92.56s-1.92-5.43-2.25-5.34Z"/>
              </g>
              <path class="cls-27" d="m53.29,46c-1,.11-1.67,6.23.56,6.9-1.89.55-5.12-.22-5.12-.22,0,0-1.67-3.89-.44-5.68,1.22-1.78,4.23-1.22,4.23-1.22l.78.22Z"/>
            </g>
            <path class="cls-45" d="m123.51,89.46c-.33,3.43-3.48,5.94-7.04,5.6l-14.09-1.35c-3.56-.34-6.17-3.4-5.84-6.83l-1.38-26.9c.33-3.43,3.48-5.94,7.04-5.6l17.62.08c3.55.34,6.17,3.4,5.84,6.83l-2.15,28.18Z"/>
            <path class="cls-45" d="m11.24,90.79c.33,3.44,3.48,5.94,7.03,5.6l14.09-1.35c3.56-.34,6.17-3.4,5.84-6.83l-2.61-27.23c-.33-3.43-3.48-5.94-7.04-5.6l-14.09,1.35c-3.55.34-6.17,3.4-5.84,6.83l2.61,27.23Z"/>
            <g>
              <path class="cls-19" d="m38.06,48.61c-.43,1.73.44,3.56,1.08,5.07.64,1.5-1.62,6.05-2.55,6.02-.93-.03-7.12-4.91-7.12-4.91,0,0,1.09.76,1.58-8.47.08-1.37,7,2.3,7,2.3Z"/>
              <path class="cls-10" d="m34.33,48.6h0s.02,0,.02,0h.02s3.05.3,3.05.3c-.01.25,1.29,3.91,2.04,5.42-.82,1.11.4,2.43-1.08,2.37-1.23-.05-6.9-1.83-7.65-2.69.21-1.23.29-6.25.3-6.55l3.3,1.15Z"/>
            </g>
            <g>
              <path class="cls-45" d="m12.39,102.94c.21,4.57-2.91,29.92-2.91,29.92h1.71l5.56-29.92h-4.37Z"/>
              <path class="cls-45" d="m22.91,103.1c.24,5.24-2.68,34.5-2.68,34.5h1.97l5.71-34.5h-5Z"/>
              <path class="cls-45" d="m48.52,101.79c-.24,5.24,3.33,34.28,3.33,34.28h-1.96l-6.37-34.28h5Z"/>
            </g>
            <path class="cls-53" d="m11.86,94.97c0,3.24.11,7.01.43,7.97.33.97,10.24,3.34,12.5,3.67,2.26.32,28.19-1.08,28.51-2.7.32-1.62-15.44-10.83-17.71-11.15-2.27-.32-23.74,2.21-23.74,2.21Z"/>
            <g>
              <path class="cls-45" d="m122.36,101.61c-.21,4.57,2.91,29.92,2.91,29.92h-1.71l-5.56-29.92h4.36Z"/>
              <path class="cls-45" d="m111.85,101.77c-.24,5.24,2.68,34.5,2.68,34.5h-1.96l-5.71-34.5h5Z"/>
              <path class="cls-45" d="m86.24,100.46c.24,5.24-3.34,34.28-3.34,34.28h1.96l6.37-34.28h-5Z"/>
            </g>
            <path class="cls-53" d="m122.9,93.64c0,3.23-.11,7.01-.43,7.98-.32.97-10.24,3.34-12.5,3.66-2.26.33-28.19-1.08-28.51-2.7-.32-1.62,15.45-10.82,17.71-11.15,2.27-.32,23.74,2.21,23.74,2.21Z"/>
            <path class="cls-18" d="m29.3,54.23l-4.71,5.48,9.54,27.52,8.81-3.86-1.17-27.54-1.99-.98s-3.28,2.82-4.53,3.03c-1.94.32-5.95-3.65-5.95-3.65Z"/>
            <path class="cls-4" d="m39.82,54.06c-.48.53-2.65,3.89-4.02,3.7-1.37-.19-5.47-2.62-5.88-3.57-.4.38-4.36,3.25-4.36,3.25l9.59,31.8,7.8-5.87-1.32-26.93-1.81-2.38Z"/>
            <path d="m34.01,92.81s-17.78,7-17.18,5.05c1.85-6.07,5.62-15.46,5.93-17.46.54-3.45-.04-8.59,0-9.81.1-3.06-2.04-11.56-1.54-11.77,3.56-1.45,4.42-1.49,7.49-4.1,0,0-1.06,4.33-.19,6.23.88,1.93,4.62,13.28,5.52,14.36.86,1.48-.03,17.5-.03,17.5Z"/>
            <path class="cls-51" d="m41.93,86.68l-1.48-9.84s-.66-6.73.57-14.84l-.2-6.7c1.74.71,2.54,2.5,6.15,3.36.81.19.8,3.48.8,3.48,0,0-1.04,10.36-1.08,11.58-.21,7.01,1.02,8.63.97,11.32-.03,1.58-1.52.73-.27,5l-5.45-3.36Z"/>
            <path class="cls-51" d="m29.78,53.94c0-.14-2.53,1.88-2.53,1.88l-1.35,2.8,1.26,1.29-1.37,1.78,8.25,13.62s-3.38-13.57-4.04-15.67c-.81-2.59-.22-5.7-.22-5.7Z"/>
            <path d="m39.67,53.82c0-.14,2.13,2.21,2.13,2.21l2.14,1.94-2.43,1.73,3.23,2.05-4.1,16.49s-.25-19.99-.31-22.21c-.05-1.85-.67-2.22-.67-2.22Z"/>
            <g>
              <path d="m21.66,85.44c-2.84,3.18-4.56,8.83-4.41,11.11.2,3.19,9.72,4.87,9.72,4.87l.61-1.44c1.86,0,5.48-.5,8.01-.5s15.28,1.77,14.47-1.96c-.56-2.62-4.06-11.24-6.59-11.94-2.54-.7-21.81-.15-21.81-.15Z"/>
              <g>
                <path d="m46.46,127.03c-.22,1.64-.2,5.52.82,6.79,0,0,.9.58,1.88.35,1.01-.24,1.18.16,1.77.85.59.69,4.25,1.31,5.95.99,2.02-.38,2.59-1.39-.01-3.02-3.08-1.92-4.9-3.71-5.61-5.57-.72-1.86-4.79-.4-4.79-.4Z"/>
                <path d="m45.77,90.27c3.34,1.18,6.03,2.02,7.71,3.15,1.48.69,2.36,2.08,2.89,5.46.52,3.41-.89,31.51-.89,31.51l-2.21.64s0,.08,0,.08c0,0-7.34.42-7.34-.04s-.88-29.42-1-30.23c-.13-.81.86-10.57.86-10.57Z"/>
              </g>
              <g>
                <path d="m26.74,127.06c-.22,1.58-.75,6.79.88,8,.56.41,1.39.02,1.91.56,2.8,2.94,6.21,2.23,7.29,1.74,1.07-.5.03-2.06-1.37-3.47-1.55-1.56-2.58-1.31-3.02-4.36-.16-1.1-.49-2.86-.49-2.86l-5.19.4Z"/>
                <path d="m26,97.75c.33-2.83,1.9-3.07,3.39-2.93,0,0-.01.27-.03.73l8.07,2.77-1.59,33.98h-6.79c0,.13,0,.22,0,.22l-2.88-.46s-.49-31.47-.17-34.31Z"/>
              </g>
            </g>
            <g>
              <g>
                <polygon class="cls-34" points="36.63 59.08 35.82 59.17 35.58 57.05 37.18 56.87 37.3 57.78 36.63 59.08"/>
                <polygon class="cls-34" points="36.7 58.74 39.85 79.16 37.75 81.11 35.75 58.86 36.7 58.74"/>
                <polygon class="cls-30" points="35.2 59.24 35.88 59.17 35.64 57.05 34 57.23 34.11 58.14 35.2 59.24"/>
                <polygon class="cls-30" points="35.05 58.93 35.38 79.41 37.75 81.11 35.84 58.84 35.05 58.93"/>
              </g>
              <polygon class="cls-30" points="36.76 59.04 35.07 59.23 35.05 59.08 36.72 58.89 36.76 59.04"/>
            </g>
            <path class="cls-18" d="m30.2,52.81c.54,3.34,5.57,3.85,5.57,3.85l-2.84,4.18-4.4-6.29,1.68-1.75Z"/>
            <path class="cls-18" d="m36.03,56.58l3.65,2.55s.57-4.01.27-4.76c-.42-1.07-.94-1.73-.94-1.73,0,0-.22,1.17-.95,2.22-.97,1.41-2.03,1.73-2.03,1.73Z"/>
            <g>
              <g>
                <path class="cls-33" d="m26.69,45.89c.31,1.2,2.04,4.18,2.78,4.73.19.14.42,2.14.16,2.13-.26-.01.92-.6,1.2-1.09.28-.5-.14-5.35-.43-5.6-.29-.25-3.72-.17-3.72-.17Z"/>
                <g>
                  <path class="cls-19" d="m29.72,46.25c-1.03-3.26-2.72-6.18,2.27-7.83,6.23-2.07,6.87,1.67,8.27,5.6,1.4,3.92,1.32,9.14-1.94,9.85-3.63.79-6.2-.7-7.51-3.37-.77-.11-1.65-1.05-2.04-2.02-.51-1.26-.4-2.52.95-2.23Z"/>
                  <path class="cls-29" d="m32.66,44.19c.96,4.17,3.37,9.69,5.79,9.47,2.8-.6,2.9-3.66,2.83-6.65-.12-2.34-.77-6.05-2.44-8.08-1.09-1.29-1.99-1.83-3.19-1.65-2.04,1.22-3.79,3.45-3,6.9Z"/>
                  <g>
                    <path class="cls-42" d="m33.68,37.61l-.21-.26s-1.55-.37-1.3-.44c.14-.04.5-.61.99-.03l-.93-.93,3.32.05s.65-.3,1.25-.07c.6.22,1.07.41,1.07.41,0,0,.04.51-.24-.14.74,0,1.64,1.45,1.97,2.61.16.33.33.7.48,1.1.65,1.68.8,3.68.8,3.68l-.27.3s-.52-4.27-2.44-4.99c-1.92-.71-5.32,1.39-5.32,1.39l.83-2.68Z"/>
                    <path class="cls-33" d="m26.02,42.36c.22-1.17.49-2.88,1.16-3.46.15-.92,2.8-1.69,5.21-3.4,0,0-2.13,1.55-1.98,2.19,0,0,.01,0,.02-.01.19-.6,3.76-3.02,3.66-2.66-.6,2.05-.69.82-.21,1.5.07-.04-.11.11-.04.07-.32-.72.32-1.68.86-2.01.05,1.07,1.21.67,2.31,1.55,1.24.65,2.47,2.18,1.67,3.22-1.85,2.4-4.11,1.48-5.6,1.99-1.35.46-1.89,1.48-2.03,2.07-.19.8.49,4.11.49,4.11l-1.15-.35-1.05-1.22-1.89,1.49s-1.86-2.74-1.42-5.08Z"/>
                  </g>
                </g>
              </g>
              <path class="cls-42" d="m41.44,43.54c-.35-.17-2.5.89-2.99.68-.49-.21-1.27.24-1.65.46-.4.3-2.78.39-3.29.67-.63.09-4.23.83-4.23.83l.53.35,3.66-.45c.22.73.78,1.75,1.39,1.73.96-.04,2.28-.34,2.33-1.23.04-.73.09-1.57.09-1.57h0c.53-.47,1.06-.24,1.06-.24,0,0,.24.75.65,1.35.43.62,1.6.41,2.35-.02.74-.43.44-2.38.09-2.55Zm-4.58,2.95c-.02.62-1.3.99-1.9.91-.6-.08-.97-1.55-.87-1.71.1-.17,2.44-.42,2.65-.54,0,0,.15.58.12,1.34Zm4.5-.78c-.46.39-1.64.74-2.08.12-.45-.61-.5-1.13-.5-1.13.24-.01,2.39-.76,2.57-.68.17.09.47,1.29.01,1.68Z"/>
            </g>
            <path d="m46.64,58.66c2.75-.49,4.01,8.58,5.46,12.79,1.4,4.05,2.47,7.92,1.09,9.29-.86.86-5.24,3.76-6.64,3.87s-2.99-5.61-2.99-5.61c0,0,4.15-1.78,4.2-2.05.17-.85-1.32-3.93-1.21-5.44.11-1.51.08-12.85.08-12.85Z"/>
            <g>
              <g>
                <path class="cls-19" d="m88.13,52.83c.65,1.69,1.97,3.57,1.52,5.16-.45,1.6,1.6,3.49,2.53,3.34.93-.15,6.64-6.43,6.64-6.43,0,0-2.22-4.89-2.55-6.24-.33-1.35-8.13,4.16-8.13,4.16Z"/>
                <path class="cls-3" d="m93.03,49.89h0s-.02,0-.02,0h-.02s0,0,0,0l-3.03.69c.04.25-1.53,2.61-1.48,3.63.96,1.01,7.69,6.23,9.17,5.98,1.23-.21.84-2.3,1.48-3.27-.37-1.22-2.89-8.33-2.94-8.62l-3.17,1.58Z"/>
              </g>
              <g>
                <path d="m98.17,42.85c.2,1.24-.39,5.88-.32,6.12.07.24.26,1.09.49.98.23-.12-1.47,1.16-1.94.81-.46-.35-1.79-5.89-1.62-6.24.17-.35,3.39-1.66,3.39-1.66Z"/>
                <g>
                  <path class="cls-19" d="m95.49,44.41c-.36-3.45.02-6.85-5.28-6.37-6.63.6-5.71,4.33-5.42,8.55.29,4.22,2.47,9.04,5.79,8.38,3.7-.73,5.49-3.16,5.62-6.17.67-.41,1.11-1.64,1.08-2.7-.03-1.38-.64-2.51-1.78-1.69Z"/>
                  <path class="cls-19" d="m86.35,38.48c-1.19.32-1.81,1.19-2.3,2.83-.73,2.56.16,6.27,1,8.49,1.14,2.81,2.47,5.61,5.32,5.04,2.35-.77,2.35-6.88,1.56-11.15-.66-3.52-3.19-4.9-5.58-5.21Z"/>
                  <g>
                    <path class="cls-51" d="m88.33,37.97l.09-.33s1.29-.96,1.03-.94c-.15.02-.71-.36-.94.37l.49-1.25-3.07,1.39s-.73-.02-1.19.44c-.47.45-.83.81-.83.81,0,0,.16.5.16-.23-.68.3-.93,2-.77,3.22-.02.37-.02.78,0,1.22.08,1.83.74,3.74.74,3.74l.37.17s-1.24-4.18.25-5.63c1.5-1.44,5.51-.85,5.51-.85l-1.85-2.16Z"/>
                    <path d="m97.36,39.3c-.67-1-1.62-2.48-2.48-2.75-.52-.8-3.29-.44-6.23-1.05,0,0,2.61.58,2.73,1.23-.01,0-.02,0-.02,0-.42-.48-4.72-1.29-4.48-1,1.39,1.66.98.48.81,1.31-.08-.01.15.05.07.05,0-.8-.98-1.44-1.61-1.52.39,1.01-.86,1.11-1.52,2.38-.89,1.1-1.41,3.02-.25,3.67,2.68,1.49,4.42-.29,6-.41,1.44-.12,2.36.61,2.73,1.1.5.66,1.2,4.02,1.2,4.02l.93-.79.84-1.52,2.01.58s.62-3.3-.73-5.3Z"/>
                  </g>
                </g>
              </g>
            </g>
            <path class="cls-18" d="m99.23,55.55l-2.97,24.48-5.03,3.06-4.43-23.51.17-2.62,1.37-.09s2.39,2.29,3.61,1.9c1.23-.39,7.27-3.22,7.27-3.22Z"/>
            <path class="cls-13" d="m88.2,56.08c.56.47,2.14,3.22,3.5,2.86,1.35-.37,6.19-2.98,6.48-3.99.45.33,1.34.08,1.34.08l-3.05,28.06-6.18,2.41-3.62-26.78,1.52-2.63Z"/>
            <g>
              <polygon class="cls-49" points="91.4 58.74 93.23 58.56 93.87 59.74 92.57 61.1 94.51 79.48 91.67 81.48 91.4 58.74"/>
              <polygon class="cls-32" points="90 81.04 90.99 61.07 89.65 59.75 90.37 58.61 91.66 58.74 91.63 60.95 91.97 81.69 90 81.04"/>
            </g>
            <path class="cls-18" d="m97.91,51.31c-.06,1.55-5.95,7.46-5.95,7.46l2.72,2.48,5.49-6.07-2.26-3.87Z"/>
            <path class="cls-18" d="m91.2,58.54l-2.21,2.62s-1.09-3.96-.88-4.76c.29-1.14.73-1.86.73-1.86,0,0,.13,1.11.66,2.3.51,1.14,1.7,1.69,1.7,1.69Z"/>
            <path d="m110.69,85.22c2.88,3.23,4.19,8.95,4.04,11.26-.2,3.24-9.56,7.43-9.56,7.43l-6.39-3.12c-1.89,0-1.69-.98-4.26-.98s-11.21,3.63-11.64,3.28c-2.11-1.72,4.33-17.98,6.9-18.69,2.57-.71,20.91.82,20.91.82Z"/>
            <g>
              <path d="m86.49,126.68c.24,1.74.21,5.88-.87,7.23,0,0-.96.62-2,.37-1.07-.25-1.25.17-1.88.91-.62.74-4.52,1.4-6.34,1.06-2.15-.4-2.76-1.48.02-3.21,3.28-2.04,5.21-3.95,5.97-5.92.76-1.99,5.1-.43,5.1-.43Z"/>
              <path d="m86.3,90.75c-5.21,1.83-10.35,3.63-10.98,6.27-.62,2.64,1.97,34.1,1.97,34.1,0,0,10.98.46,10.98,0s.2-28.87.33-29.68c.12-.8-2.3-10.7-2.3-10.7Z"/>
            </g>
            <path d="m83.91,59.63c-3.22-.31-3.47,9.37-5.82,14.79-1.2,2.76-1.79,5.18-1.44,5.82,2.2,4.14,1.99,3.38,8.53,2.57,1.12-.14,3.57-2.43,3.57-2.43l-.54-.5-.33-3.94-.16-10.16-3.8-6.16Z"/>
            <path d="m98.99,94.32s18.22,3.29,17.7,1.28c-1.42-5.58-6.58-14.5-6.99-16.5-.55-2.67-1.62-11.47-1.43-12.69.2-1.21,2.96-2.28,2.96-2.28,0,0-.41-7.22-4.16-7.76-3.81-.55-4.33-1.79-8.26-3.39,0,0,.32,5.74-.32,7.76-.64,2.05-1.58,14.76-2.35,15.96-.68,1.59,2.84,17.63,2.84,17.63Z"/>
            <path class="cls-51" d="m93.36,88.99l-2.62-9.35s-.46-7.42-2.72-15.43l-1.04-7.26c-1.66.94-1.25,1.09-4.12,3.03-.7.47.43,2.6.43,2.6,0,0,1.46,10.24,1.44,11.48-.04,4.16,4.28,14.55,3.57,19l5.06-4.07Z"/>
            <path class="cls-51" d="m98.76,52.3c-.02-.14,2.9,1.74,2.9,1.74l1.73,2.8-3.31,2.02,2.88,2.08-6.81,16.63s2.05-19.41,2.45-21.61c.49-2.71.16-3.66.16-3.66Z"/>
            <path d="m88.33,55.82c-.02-.14-1.35,1.14-1.35,1.14l-2.41,3.58,2.6.31-1.55,3.09,5.11,16.61s-2.57-20.18-2.8-22.42c-.18-1.87.39-2.31.39-2.31Z"/>
            <g>
              <path d="m102.37,133.2c.09-1.29-.66-2.13.32-8.73.12-.8-6.71-1.29-6.71-1.29.15,3.26.59,6.26-3.19,10.05-1.94,1.95-4.07,4.74-.88,5.3,3.92.69,6.86-.72,8.05-3,.08-.15.36-.08.36-.08,0,0,1.89.06,2.04-2.26Z"/>
              <path d="m96.83,88.74c3.45-1.48,6.1-1.2,7.71,2.75,1.61,3.95,1.33,11.58.97,18.42-.25,4.69-1.53,21.5-1.53,21.5h-4.14s-6.8-.56-6.8-.56c0,0-.48-27.27-.48-29.74s.21-10.65,4.25-12.38Z"/>
            </g>
            <g>
              <g>
                <polygon class="cls-25" points="101.18 138.93 98.33 138.93 94.66 90.63 101.18 90.63 101.18 138.93"/>
                <polygon class="cls-25" points="30.46 138.93 33.31 138.93 36.98 90.63 30.46 90.63 30.46 138.93"/>
              </g>
              <g>
                <path class="cls-25" d="m13.65,86.27v4.78h.02c.48,2.19,22.8,3.96,50.29,3.96s49.81-1.77,50.29-3.96h.02v-4.78H13.65Z"/>
                <path class="cls-45" d="m114.27,86.65c0,2.23-22.52,4.03-50.31,4.03s-50.31-1.8-50.31-4.03,22.53-4.03,50.31-4.03,50.31,1.8,50.31,4.03Z"/>
              </g>
            </g>
            <polygon class="cls-2" points="102.71 83.25 92.38 90.3 65.57 90.71 43.52 89.97 64.01 82.6 102.71 83.25"/>
            <path class="cls-15" d="m46.72,83.41l-16.97,6.15s-17.87-.74-16.1-3.3c1.19-1.72,12.08-3.18,12.08-3.18l10.34.19,8.6-.35,2.05.49Z"/>
            <g>
              <g>
                <path class="cls-19" d="m47.7,81.67c.02-.58-1.31-1.24-2.15-1.97,0,0-3.24.05-5.28.99-.48.22-.7.52-1.53,1.26-.62.56-.45,1.02.29.66.62-.3,1.2-.8,1.2-.8l1.12-.37s-.85.4-1.08.51c-.22.12-1.19,1.01-1.48,1.2-.41.27-.38.87.33.6.7-.27,1.04-.6,1.38-.77.49-.24,1.38-.59,1.38-.59-.97.55-2.43,1.18-2.69,1.6-.25.41.15.82.83.32,1.2-.89,2.27-1.08,2.27-1.08l-1.85.91s-.46.7.48.36c2.38-.85,4.4-1.15,5.07-1.65.55-.42,1.68-.77,1.7-1.19Z"/>
                <path class="cls-18" d="m48.2,82.84c-.03-.78-1.17-3.53-2.39-3.9-.59.35-1.22.45-1.22.45,0,0,1.53,3.13,1.5,4.44l2.11-.99Z"/>
              </g>
              <path d="m48.53,77.32l-3.15.93s2.37,5.29,2.23,6.01c3.52-.74,9.9-2.34,9.9-2.34l-8.98-4.59Z"/>
            </g>
            <g>
              <path class="cls-19" d="m28.46,82.76c-.09-.6,1.21-1.44,2-2.29,0,0,3.36-.32,5.58.4.52.17.79.45,1.74,1.13.71.51.58,1-.22.72-.67-.23-1.33-.69-1.33-.69l-1.2-.25s.93.31,1.18.4c.24.1,1.36.91,1.67,1.07.45.23.49.86-.27.66-.76-.2-1.14-.5-1.52-.64-.54-.19-1.5-.44-1.5-.44,1.08.45,2.66.94,2.97,1.34.31.39-.06.86-.82.43-1.35-.78-2.48-.85-2.48-.85l2.02.73s.56.67-.45.43c-2.57-.59-4.69-.67-5.45-1.11-.63-.37-1.84-.6-1.9-1.04Z"/>
              <path class="cls-18" d="m28.09,84.04c-.06-.81.79-3.79,2.01-4.32.65.29,1.32.32,1.32.32,0,0-1.21,3.42-1.03,4.77l-2.3-.78Z"/>
            </g>
            <path d="m21.22,58.82c-2.46.16-3.12,5.85-3.66,7.71-.54,1.86-3.61,15.96-.44,16.94,3.17.98,10.71,1.86,10.71,1.86l2.26-5.61s-7.29-1.82-7.29-3.46,1.31-7.43.87-8.2c-.44-.76-2.46-9.24-2.46-9.24Z"/>
            <g>
              <path class="cls-29" d="m102.04,82.05c.1-.67-1.36-1.62-2.24-2.58,0,0-3.78-.36-6.26.45-.58.2-.89.51-1.95,1.27-.79.57-.66,1.12.24.81.76-.26,1.5-.78,1.5-.78l1.35-.28s-1.04.35-1.32.46c-.28.11-1.52,1.02-1.88,1.2-.51.26-.55.96.31.74.85-.22,1.28-.56,1.71-.71.61-.22,1.69-.5,1.69-.5-1.21.51-2.99,1.05-3.34,1.5-.35.44.07.97.92.48,1.51-.88,2.79-.96,2.79-.96l-2.27.82s-.63.75.51.48c2.89-.67,5.27-.75,6.12-1.25.7-.41,2.06-.68,2.13-1.16Z"/>
              <path class="cls-18" d="m102.46,83.48c.07-.91-.88-4.26-2.26-4.85-.74.32-1.48.37-1.48.37,0,0,1.36,3.84,1.16,5.36l2.58-.87Z"/>
            </g>
            <path class="cls-51" d="m106.97,57.78c2.73-1.86,9.18,11.91,7.93,21.72-.25,1.96-1.45,1.76-2.72,2.14-1.27.38-11.33,3.25-11.33,3.25,0,0-1.11-5.68-1.72-6.68-.61-1,9.59-4.03,9.59-4.03,0,0-1.53-3.87-1.75-4.37-3.94-9.07-1.25-11.17,0-12.02Z"/>
            <g>
              <path class="cls-18" d="m85.97,85.31c-.83.36-2.03,1-2.57,1l-19.88-1c-.55,0-.32-.29.52-.65l5.28-2.28c.83-.36,3.49-1.4,4.04-1.4l19,.75c.55,0,.32.29-.52.65l-5.88,2.93Z"/>
              <path class="cls-18" d="m85.97,86.69c-.83.36-2.03,1-2.57,1l-24.73-.88c-.55,0-1.08-2.33-.24-2.69l1.65-.46c.83-.36,12.73-1.3,13.28-1.3l19.25-.55c.21,0,.05,1.34.05,1.41,0,.12-.29.32-.82.54l-5.88,2.93Z"/>
              <path class="cls-48" d="m84.06,85.25c.11.68-.32,1.2-.96,1.17l-24.54-.88c-.57-.03-.84-.93-.94-1.56l-3.07-18.79c-.11-.64.26-1.16.83-1.16h24.11c.63,0,1.24.55,1.35,1.23l3.22,19.99Z"/>
            </g>
          </g>
        </g>
        <g>
          <path class="cls-14" d="m394.91,145.49c0,9.46-35.95,17.13-80.31,17.13s-80.31-7.67-80.31-17.13,35.96-17.13,80.31-17.13,80.31,7.67,80.31,17.13Z"/>
          <g>
            <path class="cls-27" d="m270,84.59l.08.1.71-2.55-3.04-3.15.19,2.89,1.1,1.26.86,3.61s.73,2.18.56,1.86c-.12-.23-.27-2.15-.47-4.01Z"/>
            <path class="cls-33" d="m265.62,64.76c-1.45-1.7-4.41-2.97-5.76.72-1.35,3.69-3.74,20.85-3.74,20.85l-1.5,5.2s10.74-.32,8.68-16.66c-1.2-9.56,2.32-10.12,2.32-10.12Z"/>
            <g>
              <path class="cls-29" d="m277.68,70.68c1.33-4.98-1.27-7.29-5.21-8.39-4.01-1.12-7.7,1.87-8.39,6.98-.37,2.78.11,4.75,1,6.17-.5,2.08-1.48,3.81-2.2,4.46,1.39.51,1.58,1.17,3.61,4.5,1,1.64,3.46,4.37,4.49,5.57-.89-1.46-1.57-5.84-1.56-7,.01-1.66.5-2.59,1.48-3.79.02,0,.05.02.07.02,2.41.73,3.9-.81,5.05-3.45.68-.02,1.41-.13,1.42-.61-.26-.84-.4-1.5-.46-2.05.24-.77.46-1.58.69-2.42Z"/>
              <path class="cls-33" d="m278.39,67.5c.42,1.73-5.86,2.59-5.86,2.59l-1.86.8s.08-.95-.86-1.18c-.93-.24-1.73,1.87-1.66,2.82.08.96-3.24,2.86-3.24,2.86,0,0-2.99-7.14-.52-10.26,2.47-3.13,5.8-3.58,8.18-3.14,3.12.57,5.33,3.75,5.54,4.67.23,1.02.28.84.28.84Z"/>
              <path class="cls-42" d="m278.12,66.66c.4.32.93.6-.25,1.54-1.19.93-5.55,1.25-7,1.34-3.14.18-3.02,2.05-3.04,2.37-.39-1.97,2.02-2.93,4.06-3.2,3.52-.47,6.24-2.05,6.24-2.05Z"/>
              <path class="cls-42" d="m278.39,67.5c.07.48-.04,1.74-3.15,2.34-3.11.6-3.78.82-3.92,1.28.05-.58.87-1.42,2.43-1.82,1.56-.4,4.63-1.79,4.63-1.79Z"/>
            </g>
            <path class="cls-45" d="m311.08,97.81c-.32,3.01-3.47,5.36-7.04,5.36h-13.57c-3.57,0-6.67-2.35-6.95-5.36l-1.9-20.94c-.38-4.18,2.93-7.73,7.4-7.73h17.02c4.48,0,7.73,3.55,7.28,7.73l-2.25,20.94Z"/>
            <path class="cls-53" d="m314.32,116.83c0,1.69-1.37,3.07-3.07,3.07h-18.73c-1.7,0-3.07-1.38-3.07-3.07h0c0-1.69,1.37-3.07,3.07-3.07h18.73c1.69,0,3.07,1.37,3.07,3.07h0Z"/>
            <path d="m310.61,73.58c2.5-.24,5.65,10.17,8.56,18.25.88,2.45-8.02,5.81-10.42,4.76-1.55-.67,2.87-5.61,2.87-5.61l-3.86-10.38,2.85-7.02Z"/>
            <path class="cls-55" d="m298.53,74.8l-4.93-1.9s1.35-7,1.35-7.7l3.31-.27h0s.02,0,.02,0h.02s0,0,0,0l3.24.16c0,.7,1.16,6.85,1.16,6.85l-4.17,2.86h0Z"/>
            <path class="cls-12" d="m298.16,64.92h0s.02,0,.02,0h.02s0,0,0,0l2.83.16c0,.23.72,1.75.83,2.69-.71,1.06-5.32,4.23-6.69,4.23-1.14,0-.71.99-1.44.22.15-1.16,1.26-6.86,1.26-7.13l3.16-.16Z"/>
            <path class="cls-22" d="m302.16,68.71c-.42.54-2.67,3.78-3.94,3.65-1.28-.14-3.39-2.81-3.82-3.72-.35.38-1.68,1.41-1.68,1.41l5.65,13.17,5.27-12.67-1.48-1.83Z"/>
            <path class="cls-18" d="m294.42,68.64c.43.92,2.55,3.23,3.82,3.37.04,0-.67,15.81-.67,15.81l-4.83-17.76s1.33-1.03,1.67-1.42Z"/>
            <g class="cls-35">
              <g>
                <g>
                  <polygon class="cls-49" points="297.44 74 298.38 74 298.38 71.55 296.52 71.55 296.51 72.61 297.44 74"/>
                  <polygon class="cls-49" points="297.33 73.63 295.7 89.08 298.28 91.1 298.33 91.05 298.43 73.64 297.33 73.63"/>
                  <polygon class="cls-32" points="299.09 74 298.31 74 298.31 71.55 300.21 71.55 300.2 72.61 299.09 74"/>
                  <polygon class="cls-32" points="299.23 73.63 300.86 89.08 298.28 91.1 298.31 73.63 299.23 73.63"/>
                </g>
                <polygon class="cls-32" points="297.29 73.98 299.25 73.98 299.25 73.8 297.31 73.8 297.29 73.98"/>
              </g>
            </g>
            <path d="m299.18,108.04s-17.1,3.06-16.97,2.56c1.46-5.86,6.03-12.82,6.09-14.75.07-2.57-1.11-9.76-1.48-10.86-.37-1.1-3.92-3.68-3.92-3.68,0,0-1.16-7.53,2.23-8.2,2.96-.58,4.98-1.21,8.27-3.31,0,0,1,5.81,1.9,7.59.9,1.81,2.18,10.66,3.06,11.66.86,1.38.81,18.99.81,18.99Z"/>
            <path class="cls-51" d="m299.43,105.97l-1.66-17.16s3.22-9.54,5.05-17.19l-.12-1.91c5.2,3.53,5.89,2.9,8.31,3.79.7.25.22,3.49.22,3.49,0,0-1.16,7.73-1.53,8.83-.37,1.1-1.27,7.53-1.19,10.1.04,1.51,6.18,10.91,7.52,14.94l-16.6-4.88Z"/>
            <polygon class="cls-27" points="297.79 71.54 295.4 74.15 293.91 70.97 293.5 69.56 294.32 68.64 297.79 71.54"/>
            <polygon class="cls-18" points="299.12 71.61 301.26 74.09 303.22 69.76 302.07 68.52 299.12 71.61"/>
            <path class="cls-51" d="m294.19,68.54c0-.13-2.34,2.06-2.34,2.06l-.41,4.31,2.52-.32-2.6,2.44,6.54,11.29s-2.65-13.89-3.36-15.88c-.87-2.44-.35-3.92-.35-3.92Z"/>
            <path d="m302.59,68.54c0-.13,2.34,2.06,2.34,2.06l.41,4.31-2.52-.32,1.22,1.68-6.28,12.53s3.5-14.81,4.37-16.74c.87-1.92.46-3.53.46-3.53Z"/>
            <g>
              <g>
                <g>
                  <path class="cls-55" d="m293.04,61.42c.52,3.99,3.12,7.54,5.05,7.51,4.34-.05,5.15-2.43,5.37-7.6.18-4.28.14-8.29-5.11-8.29-4.93,0-5.84,4.19-5.3,8.37Z"/>
                  <path class="cls-54" d="m292.81,60.53c.05-4.08.6-7.46,5.51-7.48,0,0,.09,15.88.07,15.88-3.35.07-5.64-3.13-5.58-8.41Z"/>
                </g>
                <path d="m293.5,61.4c0-.96.44-1.86.08-2.56-.35-.7-.42-1.29-.17-2.17.53-1.85,2.64-2.64,3.25-2.81.62-.18.09-1.14.09-1.14,0,0-1.06-.26-2.02.35-.97.61-1.67,1.05-2.46,2.73-.79,1.67-.52,2.57.01,3.9.4,1,.1,1.98.1,1.98l.59-.42.53.15Z"/>
                <path class="cls-51" d="m301.32,56.14c1.61.27,1.67,1.06,1.67,2.2s.35,3.59.35,3.59l.68-.19s-.69-.59.02-2.41c.64-1.65.36-4.42-1.3-5.32-1.09-.6-1.36-1.33-3.97-1.06-1.05.11,1.89,3.08,2.55,3.19Z"/>
                <path class="cls-55" d="m303.35,61.46c.25-.35.93-1.29,1.11-.3.17.99-.4,2.21-.8,2.62-.41.41-.66-.15-.76.2-.05.17.45-2.52.45-2.52Z"/>
                <path class="cls-54" d="m293.5,61.83c-.23-1.14-1.2-1.58-1.38-.59-.17.99.35,2.45.76,2.85.41.41.99.53.99.35s-.37-2.62-.37-2.62Z"/>
                <path d="m293.98,57.31c2.92,1.46,6.82-.97,7.74-1.14.92-.17.2-.72-.5-2.31-.52-1.17-2.22-.95-3.67-1.42-1.56-.5-3.11-.34-2.7-.2.69.23.13.74-.07.86-.67.37-1.92.35-2.29,1.81-.44,1.74-.03,5.5.38,5.68.7.32.63.06.58-.5-.32-3.59.53-2.77.53-2.77Z"/>
              </g>
              <path class="cls-51" d="m300.1,56.83c-.71.14.41-2.13-1.52-3.54-1.01-.74-2.95-1.36-2.95-1.36.11-.04,1.47.3,3.14,1.01,1.02.44,2.4,2.83,2.4,3.54s-1.06.35-1.06.35Z"/>
              <path class="cls-51" d="m300.2,56.72c-.64.07-.88-2.17-1.65-3.03-1.59-1.79-2.29-1.76-2.29-1.76,0,0,1.95,1.28,2.16,2.34.21,1.07-.31,3.28.88,3.22.65-.04.9-.77.9-.77Z"/>
              <path class="cls-51" d="m298.5,57.33c-.64.07-1.86-.35-2.01-1.98-.14-1.63.29-2.66-.39-3.08-.86-.54-1.17-.07-1.17-.07,1.18-.51,1.12.53.9,2.79-.18,1.91.82,2.68,1.9,2.74.81.04.77-.4.77-.4Z"/>
              <path class="cls-51" d="m297.54,57.49c-.64.07-3.06.87-2.47-1.46.43-1.67.35-4.03-.23-3.8-.15.06.43-.1.12,1.53-.16.86-1.08,3.59,0,4,1.46.56,2.58-.27,2.58-.27Z"/>
              <path class="cls-51" d="m301.36,56.31c-.71-1.17-.14-2.91-2.48-3.58-1.92-.56-2.26-.05-2.05-.19.21-.14,2.94-.8,4.49.72,1.56,1.52,1.56,2.05,1.17,2.52-.39.46-1.13.53-1.13.53Z"/>
            </g>
            <path d="m283.22,75.3c-.25.58-7.34,17.3-6.61,21.13.87,4.55,8.96,2.67,8.96,2.67,0,0,2.78-2.9,3.15-5.65.07-.52-3.36-.83-3.26-1.37l2.1-8.08-4.35-8.69Z"/>
            <path d="m293.99,117.03c1.35-.37,4.43-.97,5.56-1.04,1.04-.06,5.31,1.16,5.31,1.16l2.19-8.33-15.83-.81,2.77,9.02Z"/>
            <g>
              <g>
                <path d="m306.62,139.77c-.22,1.55-.74,6.67.86,7.86.55.4,1.37.02,1.88.56,2.75,2.89,6.1,2.2,7.17,1.71,1.06-.49.03-2.02-1.35-3.41-1.52-1.53-2.54-1.28-2.97-4.29-.16-1.08-.48-2.81-.48-2.81l-5.1.39Z"/>
                <polygon points="303.66 110.56 312.65 107.47 312.44 143.97 305.22 143.97 303.66 110.56"/>
              </g>
              <path class="cls-51" d="m311.56,107.12c1.47-.14,3.01.09,3.33,2.88.33,2.79-.16,33.72-.16,33.72l-2.83.46s-.17-26.33-.17-29.95-.16-7.11-.16-7.11Z"/>
            </g>
            <g>
              <path d="m292.67,139.34c.22,1.55,1.77,5.79.16,6.98-.54.4-.61-.12-1.1.57-1.4,1.99-3.05,3.6-7.2,2.87-.67-.12-1.97-1.32-.55-2.77,1.16-1.18,3.4-1.46,3.48-5.64.02-1.09.09-2.85.09-2.85l5.12.83Z"/>
              <path d="m290.76,107.18c-3.13-1.25-5.17-1.22-6.63,2.12-1.46,3.35-.65,10.59-.33,16.37.23,3.97,1.39,18.18,1.39,18.18l4.23.56,4.7-.91s.43-23.06.43-25.15-.12-9.72-3.78-11.18Z"/>
              <path class="cls-51" d="m294.57,118.29c0-2.09-.12-9.72-3.78-11.18-.46-.18-.51-.18-.96-.31-1.05.79-1.55,1.72-1.55,3.2,0,1.41,1.25,29.74,1.53,34.39l4.33-.95s.43-23.06.43-25.15Z"/>
            </g>
            <g>
              <polygon points="357.58 122.49 350.91 118.14 351.11 112.92 358.9 116.54 357.58 122.49"/>
              <g>
                <polygon class="cls-25" points="348.85 144.89 347.89 144.89 350.98 117.21 352.66 113.25 375.14 113.53 375.14 119.29 375.08 119.29 378.26 145.05 377.3 145.05 371.78 119.29 353.96 119.29 348.85 144.89"/>
                <path class="cls-45" d="m379.76,79.57c1.77-5.22,3-5.28,7.92-5.17,4.13.09,5.43,2.27,5.26,5.81l-6.87,32.08c-.17,3.54-3.05,5.87-6.4,5.19-3.35-.68-8.02-2.94-7.76-6.48l7.85-31.43Z"/>
                <polygon class="cls-53" points="357.24 150.69 356.2 150.69 359.2 122.86 351.14 119.83 363.84 113.88 383.85 116.6 383.85 122.86 383.78 122.86 387.24 150.86 386.2 150.86 380.19 122.86 362.79 122.86 357.24 150.69"/>
                <path class="cls-25" d="m381.7,116.61c1.18,0,1.27-.42.2-.91l-6.56-3.03c-1.07-.5-2.91-.9-4.1-.89l-18.52.11c-1.18,0-2.2.69-1.27,1.42l3.61,2.1c.93.73,2.66,1.32,3.84,1.31l22.8-.12Z"/>
              </g>
            </g>
            <g>
              <g>
                <path class="cls-54" d="m343.5,113.08c-.33,2.69-.69,9.4.1,10.54.79,1.13,3.34,16.64,3.21,17.78-.43,3.8-3.28,6.87-5.96,8.56,1.74,1.04,3.82.75,7.02-2.01,1.3-1.12,2.96-1.87,3.28-2.89.72-2.32-.35-.96-.41-4.4-.07-3.45,2.39-13.51-.14-18.83-1.55-3.25-.92-7.91-1.33-9.05-.41-1.14-5.78.31-5.78.31Z"/>
                <path class="cls-51" d="m351.06,142.78c.67.55,1.11,2.08.68,3.43-.43,1.35-1.56,2.05-1.56,5.36-.73.16-.75,0-.75,0,0,0,.25-4.06-.44-3.8-.68.26-1.69,2.08-2.94,3.42-1.24,1.34-5.69.85-5.95.45-.27-.41-.53-1.71.56-2.1,1.09-.39,1.35-.73,1.35-.73,0,0,1.75,1.13,3.41-.25,2.07-1.72,5.63-5.77,5.63-5.77Z"/>
              </g>
              <g>
                <path class="cls-29" d="m342.04,114.74c-.33,2.69,2.35,9.16,3.14,10.3.79,1.14,3.35,16.64,3.21,17.78-.43,3.8-3.28,6.88-5.96,8.56,1.74,1.04,3.82.75,7.02-2.02,1.3-1.12,2.96-1.87,3.28-2.89.72-2.32-.35-.95-.42-4.4-.07-3.45,2.39-13.51-.14-18.84-1.55-3.25-.92-7.91-1.33-9.05-.41-1.14-8.82.55-8.82.55Z"/>
                <path d="m352.63,144.19c.67.55,1.11,2.07.68,3.42-.43,1.35-1.56,2.06-1.56,5.36-.73.16-.75,0-.75,0,0,0,.25-4.07-.43-3.8-.68.26-1.69,2.08-2.94,3.42-1.24,1.33-5.69.85-5.95.44-.27-.41-.53-1.71.57-2.1,1.09-.39,1.34-.72,1.34-.72,0,0,1.75,1.12,3.41-.25,2.06-1.72,5.63-5.77,5.63-5.77Z"/>
              </g>
            </g>
            <path d="m373.16,101.22l-11.16,1.05c0,2.08-.15,3.52-1.94,4.76-1.79,1.24-9.47.55-10.81,1.3-1.34.74-6.85,5.35-8.04,12.09-.94,5.33-1.29,7.64-1.29,7.64l10.62,1.05s0,.06,0,.09l5.5.45s1.94-11.26,1.94-12c2.59-1.49,8.51-.87,14.58-1.24,5.05-.3,4.49-10.23.59-15.18Z"/>
            <path class="cls-19" d="m357.01,75.81c2.94,1.37,3.58,4.56,2.91,9.69-.2,1.52,2.2-4.03,4.23-5.58,1.79-1.36,1.95-1.69,3.19-2.26-1.08-.83-4.53-3.95-4.44-7.19.09-3.23-5.89,5.33-5.89,5.33Z"/>
            <path d="m363.59,78.46c-.91.82-4.75,7.9-4.75,7.9-.75,1.56-2.09,5.23-2.26,6.41-.24,1.66,1.61,2.63,2.26,3.34.66.71,1.18,2.37,1.34,3.42.17,1.06,1.29,9.47,1.29,9.47,0,0,11.52-2.46,12.73-3.1.75-.39-2.32-11.46-2.73-15.72-.41-4.25-.46-9.47-4.94-13.5-1.8.97-1.59.57-2.95,1.78Z"/>
            <path class="cls-51" d="m372.2,89.17c1.8,11.99,5.48,16.58,4.73,16.97,0,0-5.64,1.57-5.76.95-2.75-13.89-5.67-22.95-5.99-24.92-.23-1.46-.86-3.15-1.8-4.02,1.21-1.06,1.87-1.4,3.57-2.31,4.58,5.83,4.62,9.11,5.25,13.34Z"/>
            <path class="cls-19" d="m360.64,61.66c3.98.38,7.29,2.82,6.81,7.83-.48,5.02-6.27,8.58-10.28,8.58-1.89,0-2.99-2.06-3.37-4.91-.57-.15-1.08-.39-1.01-.8.43-.79.69-1.42.87-1.95,0-.63.04-1.27.11-1.92.48-5.02,2.89-7.2,6.87-6.82Z"/>
            <g>
              <polygon class="cls-34" points="366.32 74.52 361.76 77.97 361.71 81.63 367.88 76.75 366.32 74.52"/>
              <path d="m362.07,82.11l-3.18,1.13s-1.05,6.4-1.29,7.18c-.24.78,4.47-8.31,4.47-8.31Z"/>
            </g>
            <g>
              <polygon points="269.7 123.23 276.42 118.86 276.22 113.58 268.37 117.24 269.7 123.23"/>
              <g>
                <polygon class="cls-25" points="278.5 145.81 279.46 145.81 276.35 117.91 274.66 113.92 252 114.2 252 120.01 252.06 120.01 248.86 145.97 249.82 145.97 255.39 120.01 273.35 120.01 278.5 145.81"/>
                <path class="cls-45" d="m250.2,81.9c-1.72-5.29-4.58-5.19-9.54-5.14-4.16.04-5.5,2.21-5.37,5.78l5.22,29.83c.13,3.57,3.01,5.96,6.39,5.31,3.39-.65,9.98-2.82,9.76-6.39l-6.46-29.39Z"/>
                <polygon class="cls-53" points="272.43 151.66 273.48 151.66 270.45 123.61 270.5 116.49 243.22 117.3 243.22 123.61 243.29 123.61 239.81 151.83 240.86 151.83 246.91 123.61 266.84 123.61 272.43 151.66"/>
                <path class="cls-25" d="m244.16,117.32c-1.19,0-1.28-.42-.2-.91l9.69-2.91c1.08-.5,3.33-.87,4.52-.86l16.42-.08c1.19,0,2.22.7,1.28,1.43l-3.64,2.12c-.94.73-2.68,1.33-3.87,1.32l-24.21-.11Z"/>
              </g>
            </g>
            <g>
              <path class="cls-19" d="m272.98,108.54c6.46,2.1,8.5,3.07,8.24,4.68-1.94,11.95-2.23,25-2.23,26.36.02,2.43,1.69,7.24,4.4,9.38-4.85,1.38-6.07-2.76-8.51-3.59-1.93-.67-1.76-.67-2.17-1.87-.92-2.73,1.61-1.7,1.59-5.8-.03-4.1-5.51-14.59-.02-23.51,2.24-3.64-1.29-5.65-1.29-5.65Z"/>
              <path class="cls-34" d="m273.32,140.6c-.75.61-1.5,2.42-1.04,3.92.46,1.5,1.18,5.3.88,6.51.81.19.82,0,.82,0,0,0,.11-5.62.87-5.32.75.3,1.97,3.46,3.34,4.97,1.36,1.5,6.69,1.02,6.99.56.3-.45,1.01-2.36-.2-2.8-1.21-.45-2.67-.73-2.67-.73,0,0-2.78,1-4.15-.95-1.37-1.96-4.85-6.16-4.85-6.16Z"/>
            </g>
            <g>
              <path class="cls-29" d="m271.36,109.19c6.46,2.1,8.5,3.07,8.24,4.68-1.94,11.95-2.23,25-2.23,26.36.02,2.43,1.69,7.24,4.4,9.38-4.85,1.38-6.07-2.76-8.51-3.59-1.93-.67-1.76-.67-2.17-1.87-.92-2.73,1.61-1.7,1.59-5.8-.02-4.1-5.51-14.59-.02-23.51,2.24-3.64-1.29-5.65-1.29-5.65Z"/>
              <path class="cls-30" d="m271.7,141.25c-.75.61-1.5,2.42-1.04,3.92.46,1.5,1.18,5.3.88,6.51.81.19.82,0,.82,0,0,0,.11-5.62.87-5.32.75.3,1.97,3.46,3.34,4.97,1.36,1.5,6.69,1.02,6.99.56.29-.45,1.01-2.36-.2-2.8-1.21-.45-2.67-.73-2.67-.73,0,0-2.78,1-4.14-.95-1.37-1.96-4.85-6.16-4.85-6.16Z"/>
            </g>
            <path class="cls-34" d="m255.37,98.64c-2.72,3.3-5.66,13.74-2.37,15.93,3.39,2.26,9.27.46,14.32,1.24.75.12,1.26.49,1.22,1.5l-1.38,11.42s3.51,1.46,10.5,0c3.88-.81,4.68-1.62,4.68-1.62,0,0,.98-16.44-.16-17.44-4.2-3.71-12.14-3.26-15.05-4.71-1-.5-1.75-4.98-1.75-4.98l-10.01-1.34Z"/>
            <path class="cls-27" d="m267.27,82.12c1.75,3.03,3.01,4.89,3.01,4.89,1.02,2.67,1.99,4.53,1.96,6.03-.03,2.11-1.86,3.04-2.81,3.79-.95.74-.94,3.07-1.92,4.93-.26.49-.38,3.2-.38,3.2,0,0-12.43-1.64-13.48-2.99-2.04-2.62.54-3.01,4.63-15.15,1.22-3.62,3.71-6.49,5.33-8.32,1.29-.56,2.51,1.62,3.66,3.62Z"/>
            <polygon class="cls-18" points="264.17 77.37 269.34 81.25 268.94 85.29 263.18 78.72 264.17 77.37"/>
            <g>
              <g>
                <polygon class="cls-25" points="349.88 152.95 347.15 152.95 343.65 105.37 349.88 105.37 349.88 152.95"/>
                <polygon class="cls-25" points="282.33 152.95 285.05 152.95 288.56 105.37 282.33 105.37 282.33 152.95"/>
              </g>
              <g>
                <path class="cls-25" d="m266.27,101.07v4.71h.02c.46,2.16,21.78,3.9,48.03,3.9s47.58-1.74,48.03-3.9h.02v-4.71h-96.11Z"/>
                <path class="cls-45" d="m362.38,101.45c0,2.19-21.51,3.97-48.05,3.97s-48.05-1.78-48.05-3.97,21.51-3.97,48.05-3.97,48.05,1.78,48.05,3.97Z"/>
              </g>
            </g>
            <g>
              <path class="cls-54" d="m347.04,97.57c-1.29.05-2.22-.03-2.57-.1-.35-.08-3.64-.46-3.95-.4-.3.06-2.63,1.9-2.85,2.14-.22.24-.17.79.66.76,0,0,.09.72.91.56.05.51.57.78.7.77.08.18.67.52.89.44.22-.08,1.42-.85,1.75-.86.33-.01,1.91-.08,2.69-.28.78-.2,2.12.45,2.3.4.17-.05-.53-3.44-.53-3.44Z"/>
              <polygon class="cls-27" points="347.38 96.99 345.7 97.22 346.2 101.43 348.12 101.06 347.38 96.99"/>
            </g>
            <g>
              <path class="cls-51" d="m366.33,78.98c1.54-.32,4.14,2.03,3.64,5.02-.95,5.71-7.25,14.66-8.66,15.6-1.4.95-14.05,2.29-14.05,2.29l-1.04-4.84s11.12-3.05,11.43-3.48c.92-1.31,5.1-10.71,6.22-12.39,1.12-1.68,2.46-2.21,2.46-2.21Z"/>
              <path d="m357.66,93.58c1.51-2.21,5.33-10.55,6.45-12.24.54-.82,1.14-1.36,1.61-1.71.24.04.39.11.39.11,3.08,4.04-4.32,15.5-5.11,16.53-.66.86-9.15,4.52-13.89,5.06l-.86-4.33s11.1-2.98,11.41-3.42Z"/>
            </g>
            <g>
              <path class="cls-47" d="m356.15,62.41c1.13-.97,6.99-2.29,10.01.83,2.58,2.67,2.99,6.22,3.63,10.17.52,3.19,1.21,10.07,4.6,11.36-.97.89-3.88,1.29-4.9-1.75-.54-1.62-4.63-6.57-4.31-9.15.32-2.58-9.05-11.47-9.05-11.47Z"/>
              <path class="cls-20" d="m356.79,62.01c-1.79.41-2.42,2.34-2.42,2.34.16,2.18,2.83,1.05,4.12,2.34,1.29,1.29,1.13,4.76,1.13,6.38s1.03,3.41,1.26,4.47c.54,2.48,1.72,7.64-1.91,9.02,1.62,1.61,6.97-6.11,6.97-10.2,0-1.86,1.51-12.33-6.25-14.59-.84-.25-2.31.11-2.91.24Z"/>
              <path class="cls-20" d="m356.75,61.98c3.19-1.02,7.73-1.42,9.73,2.53,1.94,3.82,1.94,11.63,3.15,15.02,1.21,3.39,2.58,5.81,4.36,5.65-.24.48-1.62.89-3.31-.08-1.24-.71-2.26-5.09-4.95-5.95-2.13-.68-6.67-16.18-7.72-16.5-1.05-.32-1.26-.68-1.26-.68Z"/>
            </g>
            <path class="cls-48" d="m290.24,93.28c1.3-.15,2.7-.43,3.05-.47.35-.04,7.34-1.38,7.34-1.38,0,0,.35.3-.33.62-.68.32-5.03,2.27-5.68,2.04-.65-.22-.83-.59-1.2-.67-.37-.08-2.16.46-3.18.93-1.02.47-4.17,1.53-4.74.74-.26-.38-.33-1.04.14-1.09.47-.05,4.59-.72,4.59-.72Z"/>
            <g>
              <path class="cls-54" d="m287.13,90.83s2.91.16,5.06,1.73c.46.33.83.94,1.48,1.93.49.75.21,1.05-.46.48-.56-.48-1.23-1.39-1.23-1.39l-.71-.44s.51.44.7.62c.2.18.38.86.38,1.43,0,.52-.3.98-.57.51-.46-.81-.36-1.1-.75-1.46-.4-.36-.73-.75-.73-.75,1.09,1.01,1.12,1.73,1.27,2.23.15.5-.62.39-1.28-.21-.66-.6-.47-.87-.47-.87l.67,1.21s.41.77-.69,0c-2.1-1.47-2.34-1.49-2.73-1.7-3.61-2.05-1.02-3.45.05-3.34Z"/>
              <path class="cls-51" d="m280.19,91.16c1.56-.86,7.48-.65,8.24-.32-1.29,0-2.56.03-3.26,1.32-4.28-1.21-4.98-1-4.98-1Z"/>
            </g>
            <g>
              <path class="cls-48" d="m303.17,91.62c-1.32-.75-2.84-1.36-3.03-1.9-.5-1.5-2.11-1.06-2.81-.92,0,0-.08,0,.18,0,.38,0,1.48,0,1.66.57.11.35-.43.13-.28.34.09.13.24.61,1.23.79,0,0,3.37,1.97,4.21,2.53.84.56,2.54,1.8,2.93,2.12.39.32,1.49.04.42-.66-1.17-.76-4.51-2.88-4.51-2.88Z"/>
              <path class="cls-48" d="m299.05,89.9c-.18-.39-.91-.82-1.51-.75-.03-.1.31-.09.46-.05.31.08.77.11,1.02.38-.68-.62-1.67-.45-1.62-.49.05-.04.31-.18.61-.14.67.08,1.44.4,1.43.79,0,.1-.39.27-.39.27Z"/>
            </g>
            <path class="cls-55" d="m304.75,88.41c-.95.24-1.85,1.18-1.85,1.18,0,0-1.72,1.43-1.6,2.02.12.59.57-.03,1.04-.27.47-.24,1.57-1.52,1.57-1.52,0,0-2.33,2.04-1.98,2.51.25.34.39.04,1.12-.49,1.37-.99,1.58-.96,1.58-.96,0,0-2.02,1.3-1.77,1.72.17.29.36.16.92.03.92-.21,1.33-.44,1.33-.44,0,0-1.77.44-1.3.8.48.36,1.21.09,1.81-.03.59-.12,1.74-.41,1.74-1.12s-.41-2.14-.99-2.83c-.71-.84-1.61-.61-1.61-.61Z"/>
            <path d="m306.04,88.56c.97.11,8.4.28,8.4.28,0,0,.2,4.09-.01,5.71-.22,1.61-7.7,2.53-7.7,2.53,0,0,.76-5.08.56-6.42-.24-1.66-1.25-2.1-1.25-2.1Z"/>
            <path class="cls-7" d="m304.82,98.75l-15.2,6.08s-23.21-.89-23.34-3.38c-.08-1.47,9.56-2.54,9.99-2.33.43.22,15.93-1.34,15.93-1.34,0,0,6.25,1.4,7.54,1.4s5.08-.42,5.08-.42Z"/>
            <g>
              <g>
                <path class="cls-18" d="m288.66,99.75c.16.07-.39.58-.39.66,0,.43-2.46.77-5.5.77s-5.5-.34-5.5-.77c0-.08-.51-.44-.36-.51.69-.32,3.38-.26,5.86-.26s5.19-.2,5.89.11Z"/>
                <path class="cls-18" d="m290.35,99.33c0,.6-3.45,1.08-7.72,1.08s-7.72-.48-7.72-1.08,3.46-1.08,7.72-1.08,7.72.49,7.72,1.08Z"/>
              </g>
              <g>
                <path class="cls-43" d="m281.37,100.17c-2.1-.03-3.04-.19-3.04-.19-.41-.18-1.82-1.5-1.54-2.22.27-.72.68-1.06,1.23-.89.55.18,1.3.97,1.72-.64.41-1.61.07-.8.9-.98.83-.18,2.24.53,2.24.53,0,0-.47.73.22.73.13,0,1.39-1.62,1.39-1.62,0,0,2.2-.18,2.06.9-.14,1.08,2.02.1,2.43,1.18.41,1.08.23,2.15-.72,2.77-.59.38-4.23.46-6.89.43Z"/>
                <path class="cls-28" d="m285.5,95.84c.16.38,0,.83-.37.99-.37.17-.8,0-.96-.38l1.33-.61Z"/>
                <path class="cls-17" d="m278.39,99.98c-.62-.55-1.41-2.98-.49-2.42,2.89,1.79,1.06-1.69,1.85-1.33.79.36.92,2.83.92,2.83,0,0,.14-1.37.76-2.01.62-.64.9-1.18.89-.35-.04,3.45,1.37.2,1.37.47s.54,2.43.81.97c.26-1.46,2.16-1.54,2.16-1.54,0,0,.17.93.46.77.68-.36,1.88.3,1.13.85-2.13,1.56.62,1.46-.57,1.64-3.9.62-9.29.11-9.29.11Z"/>
                <path class="cls-38" d="m286.31,99.06c0,.42-.33.75-.73.75s-.73-.34-.73-.75.33-.75.73-.75.73.34.73.75Z"/>
                <path class="cls-38" d="m279.92,98.62c0,.3-.23.55-.53.55s-.53-.24-.53-.55.24-.55.53-.55.53.25.53.55Z"/>
                <path class="cls-28" d="m283.08,99.2c-.32.26-.79.22-1.04-.1-.25-.31-.19-.78.13-1.04l.91,1.13Z"/>
              </g>
            </g>
            <g>
              <g>
                <path class="cls-18" d="m305.2,97.93c.16.07-.39.58-.39.66,0,.43-2.46.77-5.5.77s-5.5-.35-5.5-.77c0-.08-.52-.44-.36-.51.69-.32,3.38-.26,5.86-.26s5.19-.2,5.89.11Z"/>
                <polygon class="cls-8" points="306.86 97.57 296.35 101.42 284.41 101.42 291.45 97.51 306.86 97.57"/>
                <path class="cls-18" d="m306.89,97.51c0,.6-3.45,1.08-7.72,1.08s-7.72-.48-7.72-1.08,3.45-1.08,7.72-1.08,7.72.49,7.72,1.08Z"/>
              </g>
              <g>
                <path class="cls-38" d="m297.51,94.02c0,.34-.27.62-.6.62s-.6-.28-.6-.62.27-.62.6-.62.6.28.6.62Z"/>
                <path class="cls-21" d="m303.04,98.43c-.03.24-7.82.2-7.82-.02v-1.2c0-.68.55-1.24,1.23-1.24h5.35c.68,0,1.23.55,1.23,1.24v1.22Z"/>
                <path class="cls-43" d="m296.25,94.95c-.78-.18-1.78.75-1.48,1.16.31.41.96-.13,1.68-.13s.93,1.03.93,1.03c0,0,.41,0,.82-.41.41-.41,1.34-.41,1.34-.41,0,0,.62.82.93.62.31-.21.62-.41,1.13-.31.52.1,1.54,1.34,1.85.31.31-1.03-1.13-1.34-1.13-1.34l-6.07-.51Z"/>
                <path class="cls-39" d="m303.04,94.74c0,.4-.32.72-.72.72h-5.97c-.4,0-.72-.32-.72-.72h0c0-.4.32-.72.72-.72h5.97c.4,0,.72.32.72.72h0Z"/>
                <path class="cls-17" d="m297.59,94.28c-.98-1.08-.93-1.7-.31-1.54.62.15,1.18,1.54,1.03.46-.15-1.08.67-1.96.72-1.75.05.21.1.98.1.98,0,0-.46.51-.05.41.41-.1.26-1.18.67-.41.41.77.1.62.41.77.31.15,1.49.31.87-.88-.62-1.18,0-2.47.21-.77.15,1.28,1.49-1.65,1.6-.67.1.98-.1,1.34-.41,1.54-.31.21-.26-.1-.31.21-.05.31.62-.2.36.31-.26.51-.46.82-.46.82,0,0,.98.16.31.26-.67.1-4.73.26-4.73.26Z"/>
                <path class="cls-38" d="m301.29,94.12c0,.29-.23.53-.51.53s-.51-.24-.51-.53.23-.53.51-.53.51.24.51.53Z"/>
                <path class="cls-28" d="m299.25,94.15c-.32.34-.85.36-1.18.04-.33-.32-.33-.84,0-1.18l1.18,1.14Z"/>
              </g>
            </g>
            <path class="cls-6" d="m264.7,97.31h0s.02,0,.02,0h.02s0,0,0,0l2.83.16c0,.23-.69,2.07-.57,3-.71,1.06-1,10.67-2.37,10.66-8.71-.04-11.12-10.86-11.84-11.63.32-2.8,9.26-16.74,9.26-17.01l2.65,14.82Z"/>
            <g>
              <path class="cls-29" d="m276.56,98.56c2.17.51,4.71,1.27,5.09,1.27s2.04-.26,2.93-.13c.89.13,2.93,1.27,2.93,1.27l1.4,1.15s.04.12-.2.11c-.28,0-.86-.16-1.2-.37-.64-.38-1.79-1.02-1.79-1.02,0,0,2.83,1.49,2.7,1.74-.13.26-.85.04-1.24-.15-.38-.19-1.85-.95-1.85-.95,0,0,2.75,1.36,2.25,1.49-.51.13-1.74-.66-2.12-.72-.38-.06,1.19.63,1.19.63,0,0,.06.31-.41.19-.56-.14-1.91-.69-2.12-.69-.38,0-1.98.35-3.06-.06-1.85-.7-4.77-.45-5.09-.96-.32-.51.57-2.8.57-2.8Z"/>
              <path class="cls-27" d="m263.49,81.92c-1.75,0-2.43,1.65-2.62,3.2-.19,1.55,1.03,12.8,3.84,15.24,1.46,1.26,12.72,2.62,13.7,2.43.97-.19,1.36-1.17,1.36-1.17l.49-2.14s-.15-.32-.97-.68c-2.58-1.12-8.4-3.49-9.13-4.66-.97-1.55-2.98-7.58-3.87-10.07-.97-2.72-2.79-2.15-2.79-2.15Z"/>
              <path class="cls-18" d="m279.17,98.81c-2.58-1.12-8.4-3.49-9.13-4.66-.97-1.55-2.63-7.58-3.52-10.07-.69-1.93-2.06-2.43-2.8-2.57,1.29,3.61,2.23,10.4,4.57,14.36,1.19,2.01,8.51,5.16,11.41,5.54l.43-1.91s-.14-.32-.97-.68Z"/>
            </g>
            <g>
              <g>
                <path class="cls-54" d="m331.4,110.34c.93,1.14.34-1.49,1.09,5.83.39,3.88-1.26,15.62-1.15,18.04.12,2.75.68,5.97,2.08,8.52.66,1.19-10.52,6.06-10.52,6.06,0,0,7.15-7.43,5.1-12.36-.89-2.13-6.25-19.63-6.09-20.95.15-1.31,9.5-5.14,9.5-5.14Z"/>
                <path d="m332.54,140.37c-.58-.64-2.21,1.13-2.88,2.05-.67.92-3.31,4.26-4.04,4.35-.73.09-2.64,2.59-2.55,3.33.09.74,3.31.75,4.41.44,2.51-.7,2.56-3.43,3.59-4.54.77-.83,2.02-.53,2.58-1.48,1.13-1.91-1.11-4.15-1.11-4.15Z"/>
                <g>
                  <path class="cls-29" d="m327.18,144.26c.25-1.45,3.15-8.18,4.72-10.18,9.91-12.71,9.09-15.7,10.03-17.8.94-2.1-7.79-5.96-7.79-5.96,0,0-6.07,19.69-6.64,22.05-1.36,5.63-7.61,14.26-8.18,16.15-.82,2.72,7.86-4.25,7.86-4.25Z"/>
                  <path d="m324.7,141.62c-1.31.68-2.22,2.37-3.56,3.84-1.35,1.47-2.21,2.07-2.98,3.93-.63,1.53-.86,2.99.1,3.42.96.43,5.45-.8,5.65-3.46.27-3.54,2.22-2.54,3.3-4.62,1.04-2.01-.87-3.95-2.5-3.11Z"/>
                </g>
                <polygon class="cls-25" points="317.52 154.56 316.31 154.56 320.37 121.39 326.09 121.39 317.52 154.56"/>
                <polygon class="cls-25" points="348.35 154.56 349.69 154.56 345.49 121.39 339.77 121.39 348.35 154.56"/>
                <polygon class="cls-5" points="318.04 124.05 308.35 135.89 340.18 136.1 348.24 124.38 318.04 124.05"/>
                <path class="cls-34" d="m322.07,77.28c-4.72.96-4.47,1.46-4.5,5.18-.04,3.91-4.91,11.66-2.76,16.88.81,1.98,9.87,1.35,11.31,1.45.41-1.64-2-10.4-2-12.14,0-1.03-2.04-11.37-2.04-11.37Z"/>
                <path class="cls-34" d="m342.13,77.89c3.93.36,3.41,1.01,4.07,4.86,1.14,6.72,5.43,14.17,3.49,16.91-.92,1.31-10.2,1.51-11.63,1.62-.41-1.64,2.56-10.88,2.56-12.63,0-1.03,1.51-10.76,1.51-10.76Z"/>
                <path class="cls-29" d="m331.63,80.19s-1.79-10.57-1.79-11.3l2.42-.16h0s.02,0,.02,0h.02s0,0,0,0l2.88-.07c0,.73.81,7.08.81,7.08l-1.23,2.95-3.11,1.5Z"/>
                <path class="cls-54" d="m332.97,55.69c-.51-.06-2.57.16-3.75.43-4.24,1.34-4.32,3.87-3.97,7.94.47,5.4,4.35,8.6,6.33,8.6.02,0,.03,0,.05,0,.15.03.29.05.42.05,2.21,0,5.65-2.48,6.5-7.89.69-4.44.54-8.36-5.58-9.11Z"/>
                <path class="cls-34" d="m328.11,75.17c-2.64,1.21-6.62,2.1-7.25,2.61,0,0,1.28,10.92,1.54,11.94.26,1.02,1.12,8.41.61,10.33-.51,1.92-1.34,8.28-1.22,9.05.13.76,4.66.77,6.68.82,1.92.05,3.93.42,3.93-.86s-.5-33.1-.5-33.1l-3.79-.79Z"/>
                <path class="cls-30" d="m335.62,75.17c2.3.77,6.53,2.55,7.16,3.06,0,0-1.9,10.46-2.16,11.48-.26,1.02-.83,7.2-.32,9.11.52,1.92,1.77,8.82,1.64,9.59-.13.77-5.25,1.63-7.8,1.44-2.02-.15-2.53.33-2.53-.95s-.07-32.59-.07-32.59l4.08-1.14Z"/>
                <path class="cls-34" d="m326.18,76l1.71-1.9s3.02.29,4.04.27c0,1.64-.46,3.02-.46,3.02l-5.29-1.39Z"/>
                <path class="cls-34" d="m331.65,74.35c1.77.05,3.97-.32,4.39-.32.79.93,1.5,2,1.5,2,0,0-5.62,1.27-5.99,1.39-.11.04.09-3.07.09-3.07Z"/>
                <path class="cls-42" d="m334.79,56.23c.54-.32,2.9-.71,3.86,2.04,1.54,4.39-.55,11.28-2.79,12.87-2.47,1.75-4.7,1.91-4.54.82.16-1.09,3.46-15.73,3.46-15.73Z"/>
                <path class="cls-33" d="m335.76,56.23c-.66-.97-2.14-1.36-4.29-1.14-2.15.21-7.47,1.39-6.51,7.93.97,6.54,3.22,8.22,4.47,8.97,1.93,1.16,4.32.25,4.32.25,0,0,7.58-7.81,2-16.01Z"/>
                <path class="cls-45" d="m345.37,119.53c-.75,1.54-3.6.68-5.27.68h-14.1c-1.67,0-5.27.86-5.27-.68l-2.79-29.92c0-1.54,1.35-2.78,3.02-2.78h23.16c1.67,0,3.02,1.25,3.77,2.78l-2.53,29.92Z"/>
                <g>
                  <path class="cls-42" d="m333.19,68.38c1.71-.28,3.37,4.7,2.29,7.51-2.29,5.93,1,8.79,1.14,12.79.14,3.9-1.36,6.65-3.86,8.08,1.36-1.08,2.72-4.58,2-6.15-.71-1.57-4-11.01-3-15.15,1-4.15,1.43-7.08,1.43-7.08Z"/>
                  <path class="cls-33" d="m331.97,68.38c-1,1-5.51,7.36-3.93,12.65,1.57,5.29,3.72,6.15,4.58,10.43.86,4.29-1,5.58-1.43,6.15-.26.34,4.57-2.64,4.29-9.51-.29-6.86-4-3.79-1.72-13.94.69-3.04-.57-5.79-.57-5.79h-1.22Z"/>
                  <path class="cls-42" d="m333.97,68.52c-1.27-.71-3.14-.14-3.36.5-.14-1,1.3-1.98,2.93-1.57,1.84.46,1.21,2.07,1.21,2.07l-.78-1Z"/>
                </g>
                <path d="m333.51,143.83c-.11.64-2.46,5.9-2.36,6.22.11.32-.75.1-.75.1l1.07-5.46,2.03-.86Z"/>
                <path d="m326.86,145.06c-2.15,3.16-3.97,7.17-3.97,7.17l-.59-.05,1.77-6.85,2.79-.27Z"/>
              </g>
              <path class="cls-53" d="m348.24,124.38c0,.63-.61,1.15-1.37,1.15h-28.44c-.76,0-1.38-.51-1.38-1.15v-4.59c0-.63.62-1.15,1.38-1.15h28.44c.76,0,1.37.51,1.37,1.15v4.59Z"/>
            </g>
          </g>
        </g>
      </g>
    </g>
  </g>
</svg>